<svg width="36" height="35" viewBox="0 0 36 35" fill="none" xmlns="http://www.w3.org/2000/svg">
<rect x="0.5" width="35" height="35" rx="12" fill="#9747FF"/>
<path fill-rule="evenodd" clip-rule="evenodd" d="M26.3612 21.8801C25.0892 22.429 23.6389 22.7428 22.0988 22.7499C20.4754 24.8518 17.5909 26.25 14.3029 26.25C12.7431 26.25 11.2741 25.9353 9.98738 25.3801L9.00264 25.6339L6.47826 26.2847L4 26.9235L5.04706 24.5882L6.1136 22.2095L6.11937 22.1966C5.47753 21.1815 5.11543 20.0312 5.11543 18.8125C5.11543 14.7192 9.20012 11.3983 14.2498 11.3751C15.8732 9.27317 18.7577 7.875 22.0457 7.875C27.1198 7.875 31.2332 11.2049 31.2332 15.3125C31.2332 16.5312 30.8711 17.6815 30.2292 18.6966L30.2349 18.7094L31.3015 21.0882L32.3485 23.4235L29.8703 22.7846L27.3459 22.1339L26.3612 21.8801ZM26.3651 20.1949L25.6164 20.0358C24.8989 20.3515 24.0884 20.5776 23.1974 20.6831C23.3887 20.0854 23.4904 19.4586 23.4904 18.8125C23.4904 15.3948 20.6427 12.5155 16.7633 11.6447C18.0137 10.5939 19.8271 9.875 22.0457 9.875C26.4307 9.875 29.2332 12.6835 29.2332 15.3125C29.2332 16.2585 28.8703 17.2277 28.2014 18.081L28.31 18.3648C28.31 18.3648 28.31 18.3648 28.31 18.3648L29.2441 20.8067L28.4573 20.6395L26.3651 20.1949ZM14.3029 24.25C18.688 24.25 21.4904 21.4415 21.4904 18.8125C21.4904 16.1835 18.688 13.375 14.3029 13.375C9.91787 13.375 7.11543 16.1835 7.11543 18.8125C7.11543 19.7585 7.47828 20.7277 8.14716 21.581L8.03466 21.875L7.34731 23.6718L7.10441 24.3067L7.89135 24.1395L7.89132 24.1395L10.7322 23.5358C11.7479 23.9827 12.9501 24.25 14.3029 24.25Z" fill="#F5F5F5"/>
</svg>
