<svg width="26" height="27" viewBox="0 0 26 27" fill="none" xmlns="http://www.w3.org/2000/svg">
<path d="M7.92291 21.8255C7.92219 21.8229 7.92147 21.8202 7.92075 21.8175L7.92064 21.8171L6.98128 22.0686V21.175H4.33819C2.47384 21.175 1.58603 20.5772 1.22035 19.8401C1.04661 19.4899 1 19.224 1 18.727C1 18.2179 1.10337 17.8427 1.34332 17.4373C1.60692 16.992 2.04678 16.4901 2.78805 15.7615C2.97972 15.5734 3.07084 15.4837 3.16803 15.3866C3.54636 15.0083 3.84739 14.6727 4.05812 14.3645C4.26342 14.0643 4.45745 13.6844 4.45745 13.2376V11.0938C4.45745 5.88328 8.06602 2 13.0057 2C17.9425 2 21.5426 5.87969 21.5426 11.0938V13.2376C21.5426 13.6844 21.7366 14.0643 21.9419 14.3645C22.1526 14.6727 22.4536 15.0083 22.832 15.3866C22.9292 15.4837 23.0203 15.5734 23.212 15.7615C23.9532 16.4901 24.3931 16.992 24.6567 17.4373C24.8966 17.8427 25 18.2179 25 18.727C25 19.2122 24.9469 19.5012 24.7485 19.8709C24.3595 20.596 23.4626 21.175 21.6618 21.175H21.6613L19.0173 21.1764L18.2581 21.1768L18.0545 21.9082C17.6617 23.3193 17.0206 24.3263 16.207 24.9817C15.3995 25.6323 14.344 26 13 26C11.642 26 10.5781 25.6247 9.76678 24.9605C8.95028 24.292 8.30934 23.2649 7.92291 21.8255ZM17.346 22.5306L17.8566 21.1775H16.4104H9.58962H8.14335L8.65404 22.5306C9.01892 23.4974 9.55225 24.2886 10.3227 24.8282C11.095 25.3691 12.0064 25.5877 13 25.5877C13.9936 25.5877 14.905 25.3691 15.6773 24.8282C16.4477 24.2886 16.9811 23.4974 17.346 22.5306ZM3.15938 16.0282L3.15876 16.0288C2.63755 16.5411 2.23613 16.9716 1.9649 17.3635C1.67907 17.7766 1.48936 18.2154 1.48936 18.727C1.48936 19.0094 1.50319 19.3429 1.67227 19.6837C1.89901 20.1407 2.30659 20.4114 2.75044 20.5609C3.17597 20.7041 3.70499 20.7627 4.33819 20.7627H21.6618C22.2804 20.7627 22.803 20.703 23.2281 20.5579C23.6711 20.4068 24.0683 20.1397 24.3022 19.7036C24.4901 19.3535 24.5106 19.0124 24.5106 18.727C24.5106 18.2154 24.3209 17.7766 24.0351 17.3635C23.7639 16.9716 23.3624 16.5411 22.8412 16.0288L22.8406 16.0282C22.6487 15.8399 22.5561 15.7487 22.4585 15.6511C21.3417 14.5345 21.0532 13.9635 21.0532 13.2376V11.0938C21.0532 6.19539 17.7418 2.41234 13.0057 2.41234C8.26828 2.41234 4.94681 6.19682 4.94681 11.0938V13.2376C4.94681 13.9635 4.65833 14.5345 3.54148 15.6511C3.44388 15.7487 3.35134 15.8399 3.15938 16.0282Z" fill="#9DA0A3" stroke="#9DA0A3" stroke-width="2"/>
<circle cx="20" cy="5" r="5" fill="#9747FF"/>
</svg>
