<svg width="25" height="24" viewBox="0 0 25 24" fill="none" xmlns="http://www.w3.org/2000/svg">
<path fill-rule="evenodd" clip-rule="evenodd" d="M7.4965 8.33333C7.4965 7.04467 8.54117 6 9.82984 6C11.1185 6 12.1632 7.04467 12.1632 8.33333C12.1632 9.622 11.1185 10.6667 9.82984 10.6667C8.54117 10.6667 7.4965 9.622 7.4965 8.33333ZM9.82984 4C7.4366 4 5.4965 5.9401 5.4965 8.33333C5.4965 10.7266 7.4366 12.6667 9.82984 12.6667C12.2231 12.6667 14.1632 10.7266 14.1632 8.33333C14.1632 5.9401 12.2231 4 9.82984 4ZM9.82988 14C8.50907 14 7.22518 14.4358 6.17731 15.2399C5.12944 16.0439 4.37617 17.1713 4.03432 18.4471C3.89138 18.9806 4.20796 19.5289 4.74143 19.6718C5.27489 19.8148 5.82323 19.4982 5.96617 18.9647C6.19407 18.1142 6.69626 17.3626 7.39483 16.8266C8.09341 16.2905 8.94934 16 9.82988 16C10.7104 16 11.5663 16.2906 12.2649 16.8266C12.9635 17.3626 13.4657 18.1142 13.6936 18.9647C13.8365 19.4982 14.3849 19.8148 14.9183 19.6718C15.4518 19.5289 15.7684 18.9806 15.6254 18.4471C15.2836 17.1713 14.5303 16.0439 13.4824 15.2399C12.4346 14.4358 11.1507 14 9.82988 14ZM17.3299 9C17.8822 9 18.3299 9.44772 18.3299 10V11.5H19.8299C20.3822 11.5 20.8299 11.9477 20.8299 12.5C20.8299 13.0523 20.3822 13.5 19.8299 13.5H18.3299V15C18.3299 15.5523 17.8822 16 17.3299 16C16.7776 16 16.3299 15.5523 16.3299 15V13.5H14.8299C14.2776 13.5 13.8299 13.0523 13.8299 12.5C13.8299 11.9477 14.2776 11.5 14.8299 11.5H16.3299V10C16.3299 9.44772 16.7776 9 17.3299 9Z" fill="#9DA0A3"/>
</svg>
