<svg width="20" height="20" viewBox="0 0 20 20" fill="none" xmlns="http://www.w3.org/2000/svg">
<path d="M3.33331 8.33333L2.62621 9.04044L1.9191 8.33333L2.62621 7.62623L3.33331 8.33333ZM17.6666 15C17.6666 15.5523 17.2189 16 16.6666 16C16.1144 16 15.6666 15.5523 15.6666 15L17.6666 15ZM6.79287 13.2071L2.62621 9.04044L4.04042 7.62623L8.20709 11.7929L6.79287 13.2071ZM2.62621 7.62623L6.79287 3.45956L8.20709 4.87377L4.04042 9.04044L2.62621 7.62623ZM3.33331 7.33333L10.6666 7.33333L10.6666 9.33333L3.33331 9.33333L3.33331 7.33333ZM17.6666 14.3333L17.6666 15L15.6666 15L15.6666 14.3333L17.6666 14.3333ZM10.6666 7.33333C14.5326 7.33333 17.6666 10.4673 17.6666 14.3333L15.6666 14.3333C15.6666 11.5719 13.4281 9.33333 10.6666 9.33333L10.6666 7.33333Z" fill="#9DA0A3"/>
</svg>
