<svg width="25" height="24" viewBox="0 0 25 24" fill="none" xmlns="http://www.w3.org/2000/svg">
<path fill-rule="evenodd" clip-rule="evenodd" d="M9.82984 6C8.54117 6 7.4965 7.04467 7.4965 8.33333C7.4965 9.622 8.54117 10.6667 9.82984 10.6667C11.1185 10.6667 12.1632 9.622 12.1632 8.33333C12.1632 7.04467 11.1185 6 9.82984 6ZM5.4965 8.33333C5.4965 5.9401 7.4366 4 9.82984 4C12.2231 4 14.1632 5.9401 14.1632 8.33333C14.1632 10.7266 12.2231 12.6667 9.82984 12.6667C7.4366 12.6667 5.4965 10.7266 5.4965 8.33333ZM6.17731 15.2399C7.22518 14.4358 8.50907 14 9.82988 14C11.1507 14 12.4346 14.4358 13.4824 15.2399C14.5303 16.0439 15.2836 17.1713 15.6254 18.4471C15.7684 18.9806 15.4518 19.5289 14.9183 19.6718C14.3849 19.8148 13.8365 19.4982 13.6936 18.9647C13.4657 18.1142 12.9635 17.3626 12.2649 16.8266C11.5663 16.2906 10.7104 16 9.82988 16C8.94934 16 8.09341 16.2905 7.39483 16.8266C6.69626 17.3626 6.19407 18.1142 5.96617 18.9647C5.82323 19.4982 5.27489 19.8148 4.74143 19.6718C4.20796 19.5289 3.89138 18.9806 4.03432 18.4471C4.37617 17.1713 5.12944 16.0439 6.17731 15.2399ZM19.8299 13.5C20.3822 13.5 20.8299 13.0523 20.8299 12.5C20.8299 11.9477 20.3822 11.5 19.8299 11.5L14.8299 11.5C14.2776 11.5 13.8299 11.9477 13.8299 12.5C13.8299 13.0523 14.2776 13.5 14.8299 13.5L19.8299 13.5Z" fill="#9DA0A3"/>
</svg>
