<svg width="43" height="43" viewBox="0 0 43 43" fill="none" xmlns="http://www.w3.org/2000/svg">
<path d="M23.599 5.375H16.125C12.7466 5.375 11.0574 5.375 10.0078 6.42453C8.95831 7.47407 8.95831 9.16327 8.95831 12.5417V30.4583C8.95831 33.8367 8.95831 35.5259 10.0078 36.5755C11.0574 37.625 12.7466 37.625 16.125 37.625H26.875C30.2534 37.625 31.9426 37.625 32.9921 36.5755C34.0416 35.5259 34.0416 33.8367 34.0416 30.4583V15.8176C34.0416 15.0853 34.0416 14.7191 33.9053 14.3898C33.7689 14.0606 33.51 13.8016 32.9921 13.2838L26.1328 6.42453C25.615 5.90669 25.3561 5.64776 25.0268 5.51138C24.6976 5.375 24.3314 5.375 23.599 5.375Z" stroke="#9747FF" stroke-width="2"/>
<path d="M23.2917 5.375V12.5417C23.2917 14.2309 23.2917 15.0755 23.8165 15.6002C24.3412 16.125 25.1858 16.125 26.875 16.125H34.0417" stroke="#9747FF" stroke-width="2"/>
</svg>
