<svg width="30" height="30" viewBox="0 0 30 30" fill="none" xmlns="http://www.w3.org/2000/svg">
<path fill-rule="evenodd" clip-rule="evenodd" d="M9 2L8.92943 2H8.9294C7.57529 1.99997 6.45869 1.99994 5.57494 2.11876C4.64711 2.2435 3.82769 2.51547 3.17158 3.17158C2.51547 3.82769 2.2435 4.64711 2.11876 5.57494C1.99994 6.45869 1.99997 7.57529 2 8.9294V8.92943L2 9.00001V20.9994L2 21.07V21.07C1.99997 22.4241 1.99994 23.5407 2.11876 24.4245C2.2435 25.3523 2.51547 26.1717 3.17158 26.8278C3.82769 27.4839 4.64711 27.7559 5.57494 27.8806C6.4587 27.9995 7.57532 27.9994 8.92944 27.9994H8.92946H9.00001H20.9994H21.0699H21.07C22.4241 27.9994 23.5407 27.9995 24.4245 27.8806C25.3523 27.7559 26.1717 27.4839 26.8278 26.8278C27.4839 26.1717 27.7559 25.3523 27.8806 24.4245C27.9995 23.5407 27.9994 22.4241 27.9994 21.07V21.0699V20.9994V9V8.92946V8.92944C27.9994 7.57531 27.9995 6.4587 27.8806 5.57494C27.7559 4.64711 27.4839 3.82769 26.8278 3.17158C26.1717 2.51547 25.3523 2.2435 24.4245 2.11876C23.5407 1.99994 22.4241 1.99997 21.07 2H21.07L20.9994 2H9ZM4.58579 4.58579C4.80836 4.36322 5.13538 4.19585 5.84144 4.10092C6.57626 4.00213 7.55752 4 9 4H20.9994C22.4419 4 23.4231 4.00213 24.158 4.10092C24.864 4.19585 25.191 4.36322 25.4136 4.58579C25.6362 4.80836 25.8036 5.13538 25.8985 5.84144C25.9973 6.57626 25.9994 7.55752 25.9994 9V10.8709C25.8179 10.6861 25.5653 10.5715 25.2858 10.5715H4.71491C4.43478 10.5715 4.18155 10.6867 4 10.8723V9.00001C4 7.55752 4.00213 6.57626 4.10092 5.84144C4.19585 5.13538 4.36322 4.80836 4.58579 4.58579ZM4 12.2707V20.9994C4 22.4419 4.00213 23.4231 4.10092 24.158C4.19585 24.864 4.36322 25.191 4.58579 25.4136C4.80836 25.6362 5.13538 25.8036 5.84144 25.8985C6.57626 25.9973 7.55752 25.9994 9.00001 25.9994H20.9994C22.4419 25.9994 23.4231 25.9973 24.158 25.8985C24.864 25.8036 25.191 25.6362 25.4136 25.4136C25.6362 25.191 25.8036 24.864 25.8985 24.158C25.9973 23.4231 25.9994 22.4419 25.9994 20.9994V12.2721C25.8179 12.4569 25.5653 12.5715 25.2858 12.5715H4.71491C4.43478 12.5715 4.18155 12.4563 4 12.2707Z" fill="#6C6F72"/>
</svg>
