<svg width="25" height="25" viewBox="0 0 25 25" fill="none" xmlns="http://www.w3.org/2000/svg">
<path fill-rule="evenodd" clip-rule="evenodd" d="M12.4366 4H12.5H12.5634H12.5634C14.1533 3.99998 15.4351 3.99996 16.4541 4.12041C17.5087 4.24506 18.4111 4.51052 19.172 5.13495C19.4251 5.34272 19.6573 5.57486 19.8651 5.82803C20.4895 6.58891 20.7549 7.49133 20.8796 8.5459C21 9.56488 21 10.8467 21 12.4366V12.5V12.5634C21 14.1533 21 15.4351 20.8796 16.4541C20.7549 17.5087 20.4895 18.4111 19.8651 19.172C19.6573 19.4251 19.4251 19.6573 19.172 19.8651C18.4111 20.4895 17.5087 20.7549 16.4541 20.8796C15.4351 21 14.1533 21 12.5634 21H12.5H12.4366C10.8467 21 9.56488 21 8.5459 20.8796C7.49133 20.7549 6.58891 20.4895 5.82803 19.8651C5.57486 19.6573 5.34272 19.4251 5.13495 19.172C4.51052 18.4111 4.24506 17.5087 4.12041 16.4541C3.99996 15.4351 3.99998 14.1533 4 12.5634V12.5634V12.5V12.4366V12.4366C3.99998 10.8467 3.99996 9.56488 4.12041 8.5459C4.24506 7.49133 4.51052 6.58891 5.13495 5.82803C5.34272 5.57486 5.57486 5.34272 5.82803 5.13495C6.58891 4.51052 7.49133 4.24506 8.5459 4.12041C9.56488 3.99996 10.8467 3.99998 12.4366 4H12.4366ZM8.78068 6.10658C7.91492 6.20892 7.4423 6.39744 7.09682 6.68097C6.94492 6.80563 6.80563 6.94492 6.68097 7.09682C6.39744 7.4423 6.20892 7.91492 6.10658 8.78068C6.00164 9.66851 6 10.8318 6 12.5C6 14.1682 6.00164 15.3315 6.10658 16.2193C6.20892 17.0851 6.39744 17.5577 6.68097 17.9032C6.80563 18.0551 6.94492 18.1944 7.09682 18.319C7.4423 18.6026 7.91492 18.7911 8.78068 18.8934C9.66851 18.9984 10.8318 19 12.5 19C14.1682 19 15.3315 18.9984 16.2193 18.8934C17.0851 18.7911 17.5577 18.6026 17.9032 18.319C18.0551 18.1944 18.1944 18.0551 18.319 17.9032C18.6026 17.5577 18.7911 17.0851 18.8934 16.2193C18.9984 15.3315 19 14.1682 19 12.5C19 10.8318 18.9984 9.66851 18.8934 8.78068C18.7911 7.91492 18.6026 7.4423 18.319 7.09682C18.1944 6.94492 18.0551 6.80563 17.9032 6.68097C17.5577 6.39744 17.0851 6.20892 16.2193 6.10658C15.3315 6.00164 14.1682 6 12.5 6C10.8318 6 9.66851 6.00164 8.78068 6.10658ZM16.8334 13.5H15.8334H13.5V15.8333V16.8333L11.5 16.8333V15.8333V13.5H9.16671H8.16671V11.5H9.16671H11.5V9.16666V8.16666H13.5V9.16666V11.5H15.8334H16.8334V13.5Z" fill="#9747FF"/>
</svg>
