<svg width="26" height="26" viewBox="0 0 26 26" fill="none" xmlns="http://www.w3.org/2000/svg">
<path d="M7.92291 20.8255C7.92219 20.8229 7.92147 20.8202 7.92075 20.8175L7.92064 20.8171L6.98128 21.0686V20.175H4.33819C2.47384 20.175 1.58603 19.5772 1.22035 18.8401C1.04661 18.4899 1 18.224 1 17.727C1 17.2179 1.10337 16.8427 1.34332 16.4373C1.60692 15.992 2.04678 15.4901 2.78805 14.7615C2.97972 14.5734 3.07084 14.4837 3.16803 14.3866C3.54636 14.0083 3.84739 13.6727 4.05812 13.3645C4.26342 13.0643 4.45745 12.6844 4.45745 12.2376V10.0938C4.45745 4.88328 8.06602 1 13.0057 1C17.9425 1 21.5426 4.87969 21.5426 10.0938V12.2376C21.5426 12.6844 21.7366 13.0643 21.9419 13.3645C22.1526 13.6727 22.4536 14.0083 22.832 14.3866C22.9292 14.4837 23.0203 14.5734 23.212 14.7615C23.9532 15.4901 24.3931 15.992 24.6567 16.4373C24.8966 16.8427 25 17.2179 25 17.727C25 18.2122 24.9469 18.5012 24.7485 18.8709C24.3595 19.596 23.4626 20.175 21.6618 20.175H21.6613L19.0173 20.1764L18.2581 20.1768L18.0545 20.9082C17.6617 22.3193 17.0206 23.3263 16.207 23.9817C15.3995 24.6323 14.344 25 13 25C11.642 25 10.5781 24.6247 9.76678 23.9605C8.95028 23.292 8.30934 22.2649 7.92291 20.8255ZM17.346 21.5306L17.8566 20.1775H16.4104H9.58962H8.14335L8.65404 21.5306C9.01892 22.4974 9.55225 23.2886 10.3227 23.8282C11.095 24.3691 12.0064 24.5877 13 24.5877C13.9936 24.5877 14.905 24.3691 15.6773 23.8282C16.4477 23.2886 16.9811 22.4974 17.346 21.5306ZM3.15938 15.0282L3.15876 15.0288C2.63755 15.5411 2.23613 15.9716 1.9649 16.3635C1.67907 16.7766 1.48936 17.2154 1.48936 17.727C1.48936 18.0094 1.50319 18.3429 1.67227 18.6837C1.89901 19.1407 2.30659 19.4114 2.75044 19.5609C3.17597 19.7041 3.70499 19.7627 4.33819 19.7627H21.6618C22.2804 19.7627 22.803 19.703 23.2281 19.5579C23.6711 19.4068 24.0683 19.1397 24.3022 18.7036C24.4901 18.3535 24.5106 18.0124 24.5106 17.727C24.5106 17.2154 24.3209 16.7766 24.0351 16.3635C23.7639 15.9716 23.3624 15.5411 22.8412 15.0288L22.8406 15.0282C22.6487 14.8399 22.5561 14.7487 22.4585 14.6511C21.3417 13.5345 21.0532 12.9635 21.0532 12.2376V10.0938C21.0532 5.19539 17.7418 1.41234 13.0057 1.41234C8.26828 1.41234 4.94681 5.19682 4.94681 10.0938V12.2376C4.94681 12.9635 4.65833 13.5345 3.54148 14.6511C3.44388 14.7487 3.35134 14.8399 3.15938 15.0282Z" fill="#9DA0A3" stroke="#9DA0A3" stroke-width="2"/>
</svg>
