<svg width="22" height="22" viewBox="0 0 22 22" fill="none" xmlns="http://www.w3.org/2000/svg">
<path fill-rule="evenodd" clip-rule="evenodd" d="M15.3139 7.94444C15.3139 11.0692 12.4987 13.8889 8.65695 13.8889C4.81524 13.8889 2 11.0692 2 7.94444C2 4.81966 4.81524 2 8.65695 2C12.4987 2 15.3139 4.81966 15.3139 7.94444ZM13.1784 14.7205C11.8625 15.4616 10.3141 15.8889 8.65695 15.8889C3.87585 15.8889 0 12.332 0 7.94444C0 3.55685 3.87585 0 8.65695 0C13.4381 0 17.3139 3.55685 17.3139 7.94444C17.3139 10.127 16.3549 12.1039 14.8025 13.5398L21.5495 20.7635L19.9776 22L13.1784 14.7205Z" fill="#C3C7CA"/>
</svg>
