<svg width="26" height="26" viewBox="0 0 26 26" fill="none" xmlns="http://www.w3.org/2000/svg">
<path d="M15.1361 4.36144L16.1312 4.26194L15.1361 4.36144ZM14.9838 3.54161L14.095 4V4L14.9838 3.54161ZM15.4311 5.81793L16.2261 5.21141L16.2261 5.21141L15.4311 5.81793ZM16.3595 6.20248L16.2261 5.21141L16.3595 6.20248ZM17.5979 5.38113L18.2311 6.15509L18.2311 6.15509L17.5979 5.38113ZM18.2853 4.90918L18.5896 5.86175L18.2853 4.90918ZM18.9872 4.94419L19.3848 4.02663L19.3848 4.02663L18.9872 4.94419ZM19.6243 5.4822L18.9172 6.1893L18.9172 6.18931L19.6243 5.4822ZM20.5178 6.37567L21.2249 5.66856L21.2249 5.66856L20.5178 6.37567ZM21.0558 7.01275L21.9733 6.61517L21.9733 6.61516L21.0558 7.01275ZM21.0908 7.71464L22.0434 8.01895L22.0434 8.01894L21.0908 7.71464ZM20.6188 8.4021L19.8449 7.76886L19.8449 7.76886L20.6188 8.4021ZM19.7975 9.64056L18.8064 9.50724L18.8064 9.50725L19.7975 9.64056ZM20.182 10.5689L19.5755 11.364L19.5755 11.364L20.182 10.5689ZM21.6385 10.8639L21.738 9.86882L21.6385 10.8639ZM22.4584 11.0162L22.9168 10.1275L22.9168 10.1275L22.4584 11.0162ZM22.9299 11.5373L23.8599 11.1696L23.8599 11.1696L22.9299 11.5373ZM22.93 14.4626L22 14.095L22 14.095L22.93 14.4626ZM22.4583 14.9838L22.9166 15.8726L22.9166 15.8726L22.4583 14.9838ZM21.6386 15.1361L21.5391 14.1411L21.5065 14.1444L21.4742 14.1497L21.6386 15.1361ZM21.6386 15.1361L21.7381 16.1312L21.7707 16.1279L21.803 16.1225L21.6386 15.1361ZM20.1825 15.4309L19.5762 14.6357L19.5762 14.6357L20.1825 15.4309ZM19.7979 16.3596L18.8068 16.4931V16.4931L19.7979 16.3596ZM20.619 17.5976L19.845 18.2308H19.845L20.619 17.5976ZM21.0908 18.2848L20.1383 18.5892V18.5892L21.0908 18.2848ZM21.0558 18.9869L20.1383 18.5892L20.1383 18.5892L21.0558 18.9869ZM20.5179 19.6238L21.225 20.3309H21.225L20.5179 19.6238ZM19.6243 20.5174L18.9172 19.8102L18.9172 19.8103L19.6243 20.5174ZM18.9873 21.0554L19.3849 21.9729L19.3849 21.9729L18.9873 21.0554ZM18.2854 21.0904L17.981 22.0429L17.981 22.0429L18.2854 21.0904ZM17.5979 20.6184L18.2312 19.8444L18.2226 19.8376L17.5979 20.6184ZM17.5979 20.6184L16.9646 21.3924L16.9732 21.3993L17.5979 20.6184ZM16.3595 19.7971L16.4928 18.806H16.4928L16.3595 19.7971ZM15.4311 20.1816L16.2262 20.7882L16.2262 20.7881L15.4311 20.1816ZM15.1362 21.6383L14.1411 21.5388V21.5388L15.1362 21.6383ZM14.9837 22.4585L14.095 22L14.095 22L14.9837 22.4585ZM14.4628 22.9299L14.095 22L14.095 22L14.4628 22.9299ZM11.5373 22.9299L11.905 22L11.5373 22.9299ZM11.0162 22.4584L11.905 22H11.905L11.0162 22.4584ZM10.8639 21.6385L9.86882 21.7381V21.7381L10.8639 21.6385ZM10.5689 20.182L9.77387 20.7885L9.77387 20.7885L10.5689 20.182ZM9.64057 19.7975L9.50728 18.8064H9.50727L9.64057 19.7975ZM8.40208 20.6189L7.76884 19.8449L7.753 19.8579L7.73771 19.8714L8.40208 20.6189ZM8.40206 20.6189L9.0353 21.3928L9.05113 21.3799L9.06643 21.3663L8.40206 20.6189ZM7.71458 21.0908L8.01887 22.0434H8.01887L7.71458 21.0908ZM7.01272 21.0558L6.61515 21.9734H6.61515L7.01272 21.0558ZM6.37561 20.5178L7.08271 19.8107H7.08271L6.37561 20.5178ZM5.48217 19.6243L4.77506 20.3315L4.77506 20.3315L5.48217 19.6243ZM4.94414 18.9873L5.86171 18.5897L5.86171 18.5897L4.94414 18.9873ZM4.90913 18.2854L5.86171 18.5897L5.86171 18.5897L4.90913 18.2854ZM5.3811 17.5979L6.15506 18.2311H6.15506L5.3811 17.5979ZM6.20247 16.3594L7.19355 16.4928L6.20247 16.3594ZM5.81792 15.4311L6.42445 14.636L6.42445 14.636L5.81792 15.4311ZM4.36143 15.1361L4.26193 16.1312H4.26193L4.36143 15.1361ZM3.54161 14.9838L4 14.095H4L3.54161 14.9838ZM3.07005 14.4627L2.14009 14.8304L2.14009 14.8304L3.07005 14.4627ZM3.07008 11.5372L2.14017 11.1694L2.14017 11.1694L3.07008 11.5372ZM3.54152 11.0163L3.08305 10.1276L3.08305 10.1276L3.54152 11.0163ZM4.36155 10.8638V9.86384H4.31167L4.26205 9.86881L4.36155 10.8638ZM4.36156 10.8638V11.8638H4.41143L4.46106 11.8589L4.36156 10.8638ZM5.81842 10.5688L5.21178 9.77383L5.21177 9.77383L5.81842 10.5688ZM6.20287 9.64066L7.19396 9.50749L7.19396 9.50749L6.20287 9.64066ZM5.38128 8.40182L6.15523 7.76858H6.15523L5.38128 8.40182ZM4.90914 7.71405L5.86175 7.40988L5.86175 7.40988L4.90914 7.71405ZM4.94413 7.01243L4.02651 6.61498L4.02651 6.61498L4.94413 7.01243ZM5.48233 6.37509L6.18944 7.0822H6.18944L5.48233 6.37509ZM6.37565 5.48177L5.66855 4.77466V4.77466L6.37565 5.48177ZM7.01277 4.94373L6.6152 4.02615L6.6152 4.02616L7.01277 4.94373ZM7.71463 4.90872L8.01892 3.95614V3.95614L7.71463 4.90872ZM8.4022 5.38076L9.03543 4.60681V4.60681L8.4022 5.38076ZM9.64044 6.20207L9.77391 5.21101L9.64044 6.20207ZM10.5691 5.81742L9.77391 5.21101L9.77391 5.21101L10.5691 5.81742ZM10.8639 4.36131L11.8589 4.46081V4.46081L10.8639 4.36131ZM11.0162 3.5417L10.1274 3.08341L10.1274 3.08341L11.0162 3.5417ZM11.5374 3.07001L11.905 4L11.905 4L11.5374 3.07001ZM14.4627 3.07005L14.8304 2.1401V2.1401L14.4627 3.07005ZM16.1312 4.26194C16.1108 4.05831 16.0912 3.85693 16.0626 3.6868C16.0324 3.50684 15.9828 3.29705 15.8725 3.08322L14.095 4C14.0721 3.95549 14.0769 3.93878 14.0902 4.01798C14.1052 4.10701 14.1181 4.23089 14.1411 4.46094L16.1312 4.26194ZM16.2261 5.21141C16.2894 5.29433 16.2693 5.33101 16.2342 5.13595C16.2008 4.95045 16.1739 4.68915 16.1312 4.26194L14.1411 4.46094C14.1805 4.85459 14.2152 5.20895 14.2658 5.49017C14.3147 5.76184 14.4009 6.11633 14.636 6.42445L16.2261 5.21141ZM16.2261 5.21141L16.2261 5.21141L14.636 6.42444C15.0718 6.99575 15.7806 7.28935 16.4928 7.19355L16.2261 5.21141ZM16.9646 4.60717C16.6323 4.87905 16.4286 5.04481 16.2738 5.15238C16.1111 5.26548 16.1228 5.22531 16.2261 5.21141L16.4928 7.19355C16.8768 7.14188 17.1885 6.95223 17.4152 6.7947C17.6498 6.63163 17.9249 6.4056 18.2311 6.15509L16.9646 4.60717ZM17.981 3.95661C17.7518 4.02983 17.5684 4.14308 17.4198 4.24897C17.2793 4.34907 17.123 4.47759 16.9646 4.60717L18.2311 6.15509C18.41 6.00869 18.5068 5.93022 18.5803 5.87784C18.6457 5.83124 18.6373 5.84651 18.5896 5.86175L17.981 3.95661ZM19.3848 4.02663C18.9408 3.83421 18.442 3.80934 17.981 3.95661L18.5896 5.86175L18.5896 5.86175L19.3848 4.02663ZM20.3314 4.77509C20.1867 4.6304 20.044 4.48696 19.9142 4.37338C19.7768 4.25323 19.6056 4.12228 19.3848 4.02663L18.5896 5.86175C18.5437 5.84184 18.5369 5.82581 18.5973 5.87869C18.6653 5.93813 18.7537 6.02583 18.9172 6.1893L20.3314 4.77509ZM21.2249 5.66856L20.3314 4.77509L18.9172 6.18931L19.8107 7.08277L21.2249 5.66856ZM21.9733 6.61516C21.8777 6.39441 21.7467 6.22316 21.6266 6.08581C21.513 5.95597 21.3696 5.81326 21.2249 5.66856L19.8106 7.08277C19.9741 7.24626 20.0618 7.33469 20.1213 7.40264C20.1742 7.46308 20.1581 7.45629 20.1382 7.41034L21.9733 6.61516ZM22.0434 8.01894C22.1906 7.55797 22.1658 7.05922 21.9733 6.61517L20.1382 7.41034L20.1382 7.41034L22.0434 8.01894ZM21.3928 9.03534C21.5224 8.87696 21.6509 8.72069 21.751 8.58019C21.8569 8.43156 21.9701 8.24814 22.0434 8.01895L20.1382 7.41033C20.1535 7.36263 20.1687 7.35427 20.1221 7.41968C20.0697 7.4932 19.9913 7.58992 19.8449 7.76886L21.3928 9.03534ZM20.7885 9.77387C20.7746 9.87723 20.7345 9.88894 20.8476 9.72619C20.9551 9.57141 21.1209 9.36764 21.3928 9.03534L19.8449 7.76886C19.5943 8.07506 19.3683 8.35016 19.2052 8.58481C19.0477 8.81148 18.8581 9.12317 18.8064 9.50724L20.7885 9.77387ZM20.7885 9.77387V9.77386L18.8064 9.50725C18.7106 10.2194 19.0042 10.9282 19.5755 11.364L20.7885 9.77387ZM21.738 9.86882C21.3108 9.82609 21.0495 9.79922 20.864 9.76584C20.6689 9.73073 20.7056 9.7106 20.7885 9.77387L19.5755 11.364C19.8836 11.599 20.2381 11.6853 20.5098 11.7342C20.791 11.7848 21.1454 11.8195 21.539 11.8589L21.738 9.86882ZM22.9168 10.1275C22.703 10.0172 22.4932 9.96759 22.3132 9.93737C22.1431 9.9088 21.9417 9.88918 21.738 9.86882L21.539 11.8589C21.7691 11.8819 21.893 11.8948 21.982 11.9098C22.0612 11.9231 22.0445 11.9279 22 11.905L22.9168 10.1275ZM23.8599 11.1696C23.682 10.7196 23.3469 10.3493 22.9168 10.1275L22 11.905L22 11.905L23.8599 11.1696ZM24 12.3682C24 12.1636 24.0005 11.9613 23.989 11.7891C23.9769 11.607 23.9484 11.3933 23.8599 11.1696L22 11.905C21.9816 11.8584 21.9881 11.8423 21.9935 11.9224C21.9995 12.0125 22 12.137 22 12.3682H24ZM24 13.6319V12.3682H22V13.6319H24ZM23.86 14.8302C23.9484 14.6065 23.9769 14.3929 23.989 14.2108C24.0005 14.0388 24 13.8365 24 13.6319H22C22 13.863 21.9995 13.9875 21.9935 14.0776C21.9881 14.1577 21.9816 14.1416 22 14.095L23.86 14.8302ZM22.9166 15.8726C23.3469 15.6507 23.682 15.2804 23.86 14.8302L22 14.095V14.095L22.9166 15.8726ZM21.7381 16.1312C21.9417 16.1108 22.1431 16.0912 22.3132 16.0626C22.4931 16.0324 22.7028 15.9828 22.9166 15.8726L22 14.095C22.0445 14.0721 22.0612 14.077 21.982 14.0902C21.893 14.1052 21.7691 14.1181 21.5391 14.1411L21.7381 16.1312ZM21.803 16.1225L21.803 16.1225L21.4742 14.1497L21.4742 14.1497L21.803 16.1225ZM20.7889 16.2261C20.706 16.2893 20.6693 16.2692 20.8644 16.2341C21.0498 16.2007 21.311 16.1739 21.7381 16.1312L21.5391 14.1411C21.1456 14.1805 20.7913 14.2151 20.5102 14.2657C20.2386 14.3146 19.8842 14.4008 19.5762 14.6357L20.7889 16.2261ZM20.7889 16.2261L20.7889 16.2261L19.5762 14.6357C19.0046 15.0716 18.7108 15.7807 18.8068 16.4931L20.7889 16.2261ZM21.3929 16.9643C21.1212 16.6322 20.9555 16.4285 20.8479 16.2738C20.7348 16.1111 20.775 16.1228 20.7889 16.2261L18.8068 16.4931C18.8585 16.877 19.0481 17.1886 19.2056 17.4152C19.3686 17.6497 19.5946 17.9247 19.845 18.2308L21.3929 16.9643ZM22.0433 17.9803C21.9701 17.7513 21.8569 17.5679 21.751 17.4193C21.651 17.2789 21.5225 17.1227 21.3929 16.9643L19.845 18.2308C19.9914 18.4097 20.0698 18.5064 20.1222 18.5799C20.1688 18.6453 20.1535 18.6369 20.1383 18.5892L22.0433 17.9803ZM21.9733 19.3846C22.1658 18.9404 22.1907 18.4415 22.0433 17.9803L20.1383 18.5892L20.1383 18.5892L21.9733 19.3846ZM21.225 20.3309C21.3697 20.1862 21.5131 20.0436 21.6266 19.9138C21.7467 19.7765 21.8776 19.6053 21.9733 19.3846L20.1383 18.5892C20.1582 18.5433 20.1742 18.5365 20.1213 18.5969C20.0619 18.6648 19.9742 18.7532 19.8108 18.9167L21.225 20.3309ZM20.3314 21.2245L21.225 20.3309L19.8108 18.9167L18.9172 19.8102L20.3314 21.2245ZM19.3849 21.9729C19.6056 21.8773 19.7769 21.7463 19.9142 21.6262C20.044 21.5126 20.1867 21.3692 20.3314 21.2245L18.9172 19.8103C18.7537 19.9737 18.6653 20.0614 18.5974 20.1209C18.5369 20.1737 18.5437 20.1577 18.5897 20.1378L19.3849 21.9729ZM17.981 22.0429C18.442 22.1902 18.9408 22.1653 19.3849 21.9729L18.5897 20.1378H18.5897L17.981 22.0429ZM16.9647 21.3924C17.1231 21.522 17.2793 21.6505 17.4198 21.7506C17.5684 21.8565 17.7519 21.9697 17.981 22.0429L18.5897 20.1378C18.6374 20.153 18.6457 20.1683 18.5803 20.1217C18.5068 20.0693 18.4101 19.9909 18.2312 19.8445L16.9647 21.3924ZM16.9732 21.3993L16.9732 21.3993L18.2226 19.8376L18.2226 19.8375L16.9732 21.3993ZM16.2262 20.7881C16.1228 20.7742 16.1111 20.7341 16.2738 20.8472C16.4286 20.9547 16.6324 21.1205 16.9647 21.3924L18.2311 19.8445C17.925 19.5939 17.6499 19.3679 17.4152 19.2048C17.1886 19.0473 16.8769 18.8577 16.4928 18.806L16.2262 20.7881ZM16.2262 20.7881H16.2262L16.4928 18.806C15.7807 18.7102 15.0719 19.0038 14.636 19.5751L16.2262 20.7881ZM16.1312 21.7378C16.1739 21.3105 16.2008 21.0492 16.2342 20.8636C16.2693 20.6685 16.2894 20.7052 16.2262 20.7882L14.636 19.5751C14.401 19.8832 14.3147 20.2378 14.2658 20.5094C14.2152 20.7907 14.1805 21.1451 14.1411 21.5388L16.1312 21.7378ZM15.8724 22.917C15.9828 22.7031 16.0324 22.4932 16.0626 22.3132C16.0912 22.143 16.1108 21.9415 16.1312 21.7378L14.1411 21.5388C14.1181 21.769 14.1052 21.8929 14.0902 21.982C14.0769 22.0612 14.072 22.0445 14.095 22L15.8724 22.917ZM14.8306 23.8598C15.2805 23.6819 15.6506 23.3469 15.8724 22.917L14.095 22L14.095 22L14.8306 23.8598ZM13.6316 24C13.8363 24 14.0387 24.0005 14.2109 23.989C14.393 23.9768 14.6068 23.9483 14.8306 23.8598L14.095 22C14.1416 21.9816 14.1577 21.9881 14.0776 21.9935C13.9875 21.9995 13.8629 22 13.6316 22V24ZM12.3682 24H13.6316V22H12.3682V24ZM11.1696 23.8599C11.3933 23.9484 11.607 23.9769 11.7891 23.989C11.9613 24.0005 12.1636 24 12.3682 24V22C12.137 22 12.0125 21.9995 11.9224 21.9935C11.8423 21.9881 11.8584 21.9816 11.905 22L11.1696 23.8599ZM10.1275 22.9168C10.3493 23.3469 10.7196 23.682 11.1696 23.8599L11.905 22L10.1275 22.9168ZM9.86882 21.7381C9.88918 21.9417 9.9088 22.1431 9.93737 22.3132C9.96759 22.4932 10.0172 22.703 10.1275 22.9168L11.905 22C11.9279 22.0445 11.9231 22.0612 11.9098 21.982C11.8948 21.893 11.8819 21.7691 11.8589 21.539L9.86882 21.7381ZM9.77387 20.7885C9.7106 20.7056 9.73073 20.6689 9.76584 20.864C9.79922 21.0495 9.82609 21.3108 9.86882 21.7381L11.8589 21.539C11.8195 21.1454 11.7848 20.791 11.7342 20.5098C11.6853 20.2381 11.599 19.8836 11.364 19.5755L9.77387 20.7885ZM9.77387 20.7885L11.364 19.5755C10.9282 19.0042 10.2194 18.7106 9.50728 18.8064L9.77387 20.7885ZM9.03531 21.3928C9.36763 21.1209 9.5714 20.9551 9.72619 20.8476C9.88895 20.7345 9.87724 20.7746 9.77387 20.7885L9.50727 18.8064C9.12318 18.858 8.81149 19.0477 8.58481 19.2052C8.35015 19.3683 8.07504 19.5944 7.76884 19.8449L9.03531 21.3928ZM9.06643 21.3663L9.06644 21.3663L7.73771 19.8714L7.7377 19.8715L9.06643 21.3663ZM8.01887 22.0434C8.24807 21.9702 8.4315 21.8569 8.58013 21.751C8.72064 21.6509 8.87691 21.5224 9.0353 21.3928L7.76883 19.8449C7.58988 19.9913 7.49316 20.0698 7.41963 20.1222C7.35422 20.1688 7.36258 20.1535 7.41029 20.1383L8.01887 22.0434ZM6.61515 21.9734C7.05919 22.1658 7.55791 22.1907 8.01887 22.0434L7.41029 20.1383L7.41029 20.1383L6.61515 21.9734ZM5.6685 21.2249C5.81321 21.3696 5.95592 21.513 6.08577 21.6266C6.22313 21.7468 6.39438 21.8777 6.61515 21.9734L7.41029 20.1383C7.45624 20.1582 7.46304 20.1742 7.40259 20.1213C7.33464 20.0619 7.2462 19.9742 7.08271 19.8107L5.6685 21.2249ZM4.77506 20.3315L5.6685 21.2249L7.08271 19.8107L6.18927 18.9172L4.77506 20.3315ZM4.02657 19.3848C4.12223 19.6056 4.25318 19.7768 4.37333 19.9142C4.48692 20.044 4.63036 20.1868 4.77506 20.3315L6.18928 18.9172C6.02579 18.7538 5.93809 18.6653 5.87864 18.5974C5.82577 18.5369 5.8418 18.5437 5.86171 18.5897L4.02657 19.3848ZM3.95656 17.9811C3.8093 18.4421 3.83417 18.9408 4.02657 19.3848L5.86171 18.5897V18.5897L3.95656 17.9811ZM4.60715 16.9647C4.47756 17.123 4.34903 17.2793 4.24892 17.4198C4.14303 17.5684 4.02977 17.7519 3.95656 17.9811L5.86171 18.5897C5.84647 18.6374 5.83119 18.6457 5.87779 18.5803C5.93018 18.5068 6.00865 18.4101 6.15506 18.2311L4.60715 16.9647ZM5.2114 16.2261C5.2253 16.1228 5.26548 16.1111 5.15237 16.2738C5.0448 16.4286 4.87903 16.6324 4.60715 16.9647L6.15506 18.2311C6.40558 17.9249 6.63162 17.6498 6.79469 17.4152C6.95222 17.1885 7.14188 16.8768 7.19355 16.4928L5.2114 16.2261ZM5.2114 16.2261L5.2114 16.2261L7.19355 16.4928C7.28934 15.7806 6.99575 15.0718 6.42445 14.636L5.2114 16.2261ZM4.26193 16.1312C4.68915 16.1739 4.95044 16.2008 5.13595 16.2342C5.33101 16.2693 5.29432 16.2894 5.2114 16.2261L6.42445 14.636C6.11633 14.4009 5.76184 14.3147 5.49017 14.2658C5.20894 14.2152 4.85458 14.1805 4.46093 14.1411L4.26193 16.1312ZM3.08323 15.8725C3.29705 15.9828 3.50683 16.0324 3.6868 16.0626C3.85693 16.0912 4.05831 16.1108 4.26193 16.1312L4.46094 14.1411C4.23089 14.1181 4.10701 14.1052 4.01798 14.0902C3.93878 14.0769 3.95549 14.0721 4 14.095L3.08323 15.8725ZM2.14009 14.8304C2.31803 15.2804 2.65311 15.6507 3.08323 15.8725L4 14.095H4L2.14009 14.8304ZM2 13.6318C2 13.8364 1.99948 14.0387 2.01098 14.2109C2.02314 14.393 2.05163 14.6066 2.14009 14.8304L4 14.095C4.01841 14.1416 4.01188 14.1577 4.00653 14.0776C4.00052 13.9875 4 13.863 4 13.6318H2ZM2 12.3683V13.6318H4V12.3683H2ZM2.14017 11.1694C2.05166 11.3932 2.02315 11.607 2.01098 11.7891C1.99948 11.9613 2 12.1637 2 12.3683H4C4 12.1371 4.00052 12.0125 4.00654 11.9224C4.01189 11.8423 4.01842 11.8584 4 11.905L2.14017 11.1694ZM3.08305 10.1276C2.65308 10.3494 2.3181 10.7195 2.14017 11.1694L4 11.905L4 11.905L3.08305 10.1276ZM4.26205 9.86881C4.05837 9.88917 3.85694 9.9088 3.68677 9.93737C3.50676 9.9676 3.29692 10.0172 3.08305 10.1276L4 11.905C3.95548 11.928 3.93877 11.9231 4.01798 11.9098C4.10704 11.8948 4.23094 11.8819 4.46105 11.8589L4.26205 9.86881ZM4.36155 9.86384H4.36155V11.8638H4.36155V9.86384ZM4.36156 9.86384H4.36155V11.8638H4.36156V9.86384ZM5.21177 9.77383C5.29471 9.71055 5.33141 9.73069 5.1363 9.7658C4.95075 9.7992 4.68939 9.82607 4.26205 9.86881L4.46106 11.8589C4.85482 11.8195 5.20927 11.7848 5.49056 11.7342C5.76231 11.6853 6.1169 11.5989 6.42506 11.3638L5.21177 9.77383ZM5.21177 9.77383L5.21178 9.77383L6.42506 11.3638C6.99613 10.928 7.28962 10.2194 7.19396 9.50749L5.21177 9.77383ZM4.60732 9.03506C4.87929 9.36746 5.04511 9.5713 5.15272 9.72614C5.26586 9.88895 5.22567 9.87724 5.21177 9.77383L7.19396 9.50749C7.14234 9.1233 6.95263 8.81151 6.79506 8.58478C6.63195 8.35006 6.40584 8.07487 6.15523 7.76858L4.60732 9.03506ZM3.95652 8.01822C4.02973 8.24751 4.14303 8.43102 4.24896 8.5797C4.3491 8.72027 4.47768 8.8766 4.60732 9.03506L6.15523 7.76858C6.00876 7.58956 5.93026 7.49279 5.87785 7.41923C5.83123 7.35379 5.84651 7.36215 5.86175 7.40988L3.95652 8.01822ZM4.02651 6.61498C3.83424 7.05887 3.80938 7.5574 3.95652 8.01822L5.86175 7.40988L4.02651 6.61498ZM4.77523 5.66798C4.63047 5.81274 4.48698 5.9555 4.37335 6.08539C4.25316 6.2228 4.12217 6.39412 4.02651 6.61498L5.86175 7.40988C5.84184 7.45585 5.8258 7.46265 5.8787 7.40219C5.93816 7.33421 6.02589 7.24574 6.18944 7.0822L4.77523 5.66798ZM5.66855 4.77466L4.77523 5.66798L6.18944 7.0822L7.08276 6.18888L5.66855 4.77466ZM5.66855 4.77466L5.66855 4.77466L7.08276 6.18888L7.08276 6.18887L5.66855 4.77466ZM6.6152 4.02616C6.39443 4.12181 6.22317 4.25276 6.08582 4.37292C5.95597 4.48651 5.81325 4.62995 5.66855 4.77466L7.08276 6.18887C7.24625 6.02538 7.33469 5.93768 7.40264 5.87824C7.46309 5.82536 7.45629 5.84139 7.41034 5.8613L6.6152 4.02616ZM8.01892 3.95614C7.55795 3.80889 7.05923 3.83377 6.6152 4.02615L7.41033 5.8613H7.41034L8.01892 3.95614ZM9.03543 4.60681C8.87702 4.47719 8.72073 4.34865 8.58021 4.24853C8.43158 4.14264 8.24813 4.02936 8.01892 3.95614L7.41034 5.8613C7.36262 5.84606 7.35426 5.83078 7.41969 5.8774C7.49324 5.9298 7.58999 6.00829 7.76896 6.15472L9.03543 4.60681ZM9.77391 5.21101C9.87727 5.22493 9.88897 5.26509 9.72621 5.15198C9.57144 5.04441 9.36769 4.87865 9.03543 4.60681L7.76896 6.15472C8.07512 6.40521 8.35018 6.63122 8.58477 6.79427C8.81138 6.95176 9.123 7.14141 9.50697 7.19312L9.77391 5.21101ZM9.77391 5.21101L9.77391 5.21101L9.50697 7.19312C10.2193 7.28905 10.9284 6.99536 11.3642 6.42382L9.77391 5.21101ZM9.86883 4.2618C9.82612 4.6889 9.79926 4.95012 9.76589 5.13558C9.7308 5.33059 9.71068 5.29392 9.77391 5.21101L11.3642 6.42382C11.5992 6.11576 11.6854 5.76136 11.7343 5.48976C11.7849 5.20861 11.8196 4.85435 11.8589 4.46081L9.86883 4.2618ZM10.1274 3.08341C10.0172 3.29719 9.96756 3.50692 9.93736 3.68683C9.9088 3.85692 9.88919 4.05824 9.86883 4.2618L11.8589 4.46081C11.8819 4.23082 11.8948 4.10698 11.9098 4.01798C11.923 3.9388 11.9279 3.9555 11.905 4L10.1274 3.08341ZM11.1698 2.14002C10.7196 2.31796 10.3492 2.65315 10.1274 3.08341L11.905 4L11.905 4L11.1698 2.14002ZM12.3681 2C12.1635 2 11.9612 1.99948 11.7892 2.01097C11.6071 2.02313 11.3935 2.05161 11.1698 2.14002L11.905 4C11.8584 4.0184 11.8423 4.01188 11.9224 4.00653C12.0125 4.00052 12.137 4 12.3681 4V2ZM13.6318 2H12.3681V4H13.6318V2ZM14.8304 2.1401C14.6066 2.05163 14.393 2.02314 14.2109 2.01098C14.0387 1.99948 13.8364 2 13.6318 2V4C13.863 4 13.9875 4.00052 14.0776 4.00653C14.1577 4.01188 14.1416 4.01841 14.095 4L14.8304 2.1401ZM15.8725 3.08322C15.6507 2.65312 15.2804 2.31803 14.8304 2.1401L14.095 4L14.095 4L15.8725 3.08322ZM16 13C16 14.6569 14.6569 16 13 16V18C15.7614 18 18 15.7614 18 13H16ZM13 10C14.6569 10 16 11.3431 16 13H18C18 10.2386 15.7614 8 13 8V10ZM10 13C10 11.3431 11.3431 10 13 10V8C10.2386 8 8 10.2386 8 13H10ZM13 16C11.3431 16 10 14.6569 10 13H8C8 15.7614 10.2386 18 13 18V16Z" fill="#9747FF"/>
</svg>
