<?xml version="1.0" encoding="UTF-8"?>
<svg xmlns="http://www.w3.org/2000/svg" xmlns:xlink="http://www.w3.org/1999/xlink" width="192px" height="192px" viewBox="0 0 192 192" version="1.1">
<g id="surface1">
<path style=" stroke:none;fill-rule:nonzero;fill:rgb(59.215686%,27.843137%,100%);fill-opacity:1;" d="M 66.667969 0 L 125.332031 0 C 160.679688 0 189.332031 29.472656 189.332031 65.828125 L 189.332031 126.171875 C 189.332031 162.527344 160.679688 192 125.332031 192 L 66.667969 192 C 31.320312 192 2.667969 162.527344 2.667969 126.171875 L 2.667969 65.828125 C 2.667969 29.472656 31.320312 0 66.667969 0 Z M 66.667969 0 "/>
<path style=" stroke:none;fill-rule:evenodd;fill:rgb(96.078431%,96.078431%,96.078431%);fill-opacity:1;" d="M 140.59375 120.027344 C 133.808594 123.039062 126.074219 124.761719 117.859375 124.800781 C 109.203125 136.328125 93.816406 144 76.28125 144 C 67.964844 144 60.128906 142.273438 53.265625 139.226562 L 48.015625 140.621094 L 34.550781 144.191406 L 21.332031 147.695312 L 26.917969 134.882812 L 32.605469 121.835938 L 32.636719 121.765625 C 29.214844 116.195312 27.28125 109.886719 27.28125 103.199219 C 27.28125 80.746094 49.066406 62.527344 76 62.402344 C 84.65625 50.871094 100.042969 43.199219 117.578125 43.199219 C 144.640625 43.199219 166.578125 61.46875 166.578125 84 C 166.578125 90.683594 164.644531 96.996094 161.222656 102.5625 L 161.253906 102.632812 L 166.941406 115.683594 L 172.523438 128.496094 L 159.308594 124.988281 L 145.84375 121.421875 Z M 140.613281 110.785156 L 136.621094 109.910156 C 132.792969 111.640625 128.472656 112.882812 123.71875 113.460938 C 124.738281 110.183594 125.28125 106.746094 125.28125 103.199219 C 125.28125 84.453125 110.09375 68.65625 89.402344 63.878906 C 96.074219 58.113281 105.746094 54.171875 117.578125 54.171875 C 140.964844 54.171875 155.910156 69.578125 155.910156 84 C 155.910156 89.191406 153.976562 94.507812 150.40625 99.1875 L 150.988281 100.742188 L 155.96875 114.140625 L 151.773438 113.222656 Z M 76.28125 133.027344 C 99.667969 133.027344 114.617188 117.621094 114.617188 103.199219 C 114.617188 88.777344 99.667969 73.371094 76.28125 73.371094 C 52.894531 73.371094 37.949219 88.777344 37.949219 103.199219 C 37.949219 108.390625 39.882812 113.707031 43.453125 118.386719 L 42.851562 120 L 39.1875 129.855469 L 37.890625 133.339844 L 42.085938 132.421875 L 57.238281 129.109375 C 62.65625 131.5625 69.066406 133.027344 76.28125 133.027344 Z M 76.28125 133.027344 "/>
</g>
</svg>
