<?xml version="1.0" encoding="UTF-8"?>
<svg xmlns="http://www.w3.org/2000/svg" xmlns:xlink="http://www.w3.org/1999/xlink" width="512px" height="512px" viewBox="0 0 512 512" version="1.1">
<g id="surface1">
<path style=" stroke:none;fill-rule:nonzero;fill:rgb(59.215686%,27.843137%,100%);fill-opacity:1;" d="M 177.777344 0 L 334.222656 0 C 428.480469 0 504.890625 78.59375 504.890625 175.542969 L 504.890625 336.457031 C 504.890625 433.40625 428.480469 512 334.222656 512 L 177.777344 512 C 83.519531 512 7.109375 433.40625 7.109375 336.457031 L 7.109375 175.542969 C 7.109375 78.59375 83.519531 0 177.777344 0 Z M 177.777344 0 "/>
<path style=" stroke:none;fill-rule:evenodd;fill:rgb(96.078431%,96.078431%,96.078431%);fill-opacity:1;" d="M 374.914062 320.074219 C 356.824219 328.105469 336.199219 332.695312 314.292969 332.796875 C 291.207031 363.546875 250.183594 384 203.417969 384 C 181.234375 384 160.34375 379.394531 142.042969 371.273438 L 128.039062 374.988281 L 92.136719 384.507812 L 56.890625 393.851562 L 71.78125 359.691406 L 86.949219 324.894531 L 87.03125 324.703125 C 77.902344 309.855469 72.753906 293.027344 72.753906 275.199219 C 72.753906 215.320312 130.847656 166.742188 202.664062 166.402344 C 225.753906 135.652344 266.777344 115.199219 313.539062 115.199219 C 385.703125 115.199219 444.207031 163.910156 444.207031 224 C 444.207031 241.828125 439.054688 258.65625 429.925781 273.503906 L 430.007812 273.691406 L 445.175781 308.492188 L 460.066406 342.652344 L 424.820312 333.304688 L 388.917969 323.789062 Z M 374.96875 295.421875 L 364.320312 293.09375 C 354.117188 297.714844 342.589844 301.019531 329.917969 302.5625 C 332.640625 293.820312 334.085938 284.652344 334.085938 275.199219 C 334.085938 225.203125 293.585938 183.082031 238.410156 170.34375 C 256.195312 154.972656 281.984375 144.457031 313.539062 144.457031 C 375.902344 144.457031 415.761719 185.542969 415.761719 224 C 415.761719 237.839844 410.601562 252.015625 401.085938 264.5 L 402.632812 268.652344 L 415.917969 304.371094 L 404.726562 301.925781 Z M 203.417969 354.742188 C 265.785156 354.742188 305.640625 313.660156 305.640625 275.199219 C 305.640625 236.742188 265.785156 195.65625 203.417969 195.65625 C 141.054688 195.65625 101.195312 236.742188 101.195312 275.199219 C 101.195312 289.039062 106.359375 303.214844 115.871094 315.699219 L 114.269531 320 L 104.496094 346.285156 L 101.039062 355.574219 L 112.234375 353.125 L 112.230469 353.125 L 152.636719 344.296875 C 167.082031 350.832031 184.179688 354.742188 203.417969 354.742188 Z M 203.417969 354.742188 "/>
</g>
</svg>
