<svg width="19" height="20" viewBox="0 0 19 20" fill="none" xmlns="http://www.w3.org/2000/svg">
<path d="M9.5 17.125C8.56433 17.125 7.63782 16.9407 6.77338 16.5826C5.90894 16.2246 5.12348 15.6998 4.46186 15.0381C3.80025 14.3765 3.27542 13.5911 2.91736 12.7266C2.55929 11.8622 2.375 10.9357 2.375 10C2.375 9.06433 2.55929 8.13782 2.91736 7.27338C3.27542 6.40893 3.80025 5.62348 4.46186 4.96186C5.12348 4.30025 5.90894 3.77542 6.77338 3.41736C7.63783 3.05929 8.56433 2.875 9.5 2.875C10.4357 2.875 11.3622 3.05929 12.2266 3.41736C13.0911 3.77542 13.8765 4.30025 14.5381 4.96187C15.1998 5.62348 15.7246 6.40894 16.0826 7.27338C16.4407 8.13783 16.625 9.06433 16.625 10C16.625 10.9357 16.4407 11.8622 16.0826 12.7266C15.7246 13.5911 15.1998 14.3765 14.5381 15.0381C13.8765 15.6998 13.0911 16.2246 12.2266 16.5826C11.3622 16.9407 10.4357 17.125 9.5 17.125L9.5 17.125Z" stroke="#9DA0A3" stroke-width="2" stroke-linecap="round"/>
<path d="M7.125 7.625L11.875 12.375" stroke="#9DA0A3" stroke-width="2" stroke-linecap="round"/>
<path d="M11.875 7.625L7.125 12.375" stroke="#9DA0A3" stroke-width="2" stroke-linecap="round"/>
</svg>
