<svg width="19" height="19" viewBox="0 0 19 19" fill="none" xmlns="http://www.w3.org/2000/svg">
<path d="M9.5 16.625C8.56433 16.625 7.63782 16.4407 6.77338 16.0826C5.90894 15.7246 5.12348 15.1998 4.46186 14.5381C3.80025 13.8765 3.27542 13.0911 2.91736 12.2266C2.55929 11.3622 2.375 10.4357 2.375 9.5C2.375 8.56433 2.55929 7.63782 2.91736 6.77338C3.27542 5.90893 3.80025 5.12348 4.46186 4.46186C5.12348 3.80025 5.90894 3.27542 6.77338 2.91736C7.63783 2.55929 8.56433 2.375 9.5 2.375C10.4357 2.375 11.3622 2.55929 12.2266 2.91736C13.0911 3.27542 13.8765 3.80025 14.5381 4.46187C15.1998 5.12348 15.7246 5.90894 16.0826 6.77338C16.4407 7.63783 16.625 8.56433 16.625 9.5C16.625 10.4357 16.4407 11.3622 16.0826 12.2266C15.7246 13.0911 15.1998 13.8765 14.5381 14.5381C13.8765 15.1998 13.0911 15.7246 12.2266 16.0826C11.3622 16.4407 10.4357 16.625 9.5 16.625L9.5 16.625Z" stroke="#9DA0A3" stroke-width="2" stroke-linecap="round"/>
<path d="M7.125 7.125L11.875 11.875" stroke="#9DA0A3" stroke-width="2" stroke-linecap="round"/>
<path d="M11.875 7.125L7.125 11.875" stroke="#9DA0A3" stroke-width="2" stroke-linecap="round"/>
</svg>
