<svg width="23" height="22" viewBox="0 0 23 22" fill="none" xmlns="http://www.w3.org/2000/svg">
<path d="M4.92225 13.263L5.52094 13.6151L4.92225 13.263C4.77835 13.5077 4.70899 13.7765 4.6542 13.9888C4.64923 14.008 4.64437 14.0269 4.63959 14.0451L4.03531 16.3572C4.03239 16.3683 4.02934 16.38 4.0262 16.3919C3.9878 16.5381 3.93462 16.7405 3.91513 16.9199C3.89271 17.1264 3.88118 17.5784 4.2462 17.9512L4.96066 17.2515L4.2462 17.9512C4.61122 18.3239 5.06338 18.3218 5.27027 18.3037C5.45009 18.288 5.65356 18.2391 5.80048 18.2037C5.81253 18.2008 5.82419 18.198 5.83542 18.1953L8.33163 17.5984C8.3492 17.5942 8.36728 17.59 8.3858 17.5856C8.58988 17.5374 8.84814 17.4765 9.08663 17.3465C9.3251 17.2166 9.51632 17.0326 9.66741 16.8872C9.68112 16.874 9.6945 16.8611 9.70756 16.8486L9.70758 16.8486L9.71559 16.8409L9.71562 16.8409L16.4402 10.4087C16.4535 10.396 16.4668 10.3832 16.4801 10.3705C16.7955 10.0689 17.1006 9.77725 17.3189 9.50364C17.564 9.19643 17.7981 8.7948 17.8035 8.27057L17.8036 8.27057V8.26028V8.23971H17.8036L17.8035 8.22943C17.7981 7.7052 17.564 7.30357 17.3189 6.99636C17.1006 6.72275 16.7956 6.43106 16.4801 6.12949C16.4668 6.11677 16.4535 6.10403 16.4402 6.09128L15.749 6.81392L16.4402 6.09128C16.4276 6.07928 16.4151 6.06728 16.4026 6.0553C16.1126 5.77781 15.8294 5.50684 15.5652 5.3128C15.2669 5.09371 14.8846 4.88867 14.3948 4.88391L14.3948 4.88386H14.385H14.3656V4.88381L14.3559 4.88391C13.866 4.88867 13.4837 5.09371 13.1854 5.3128C12.9212 5.50684 12.6381 5.77781 12.3481 6.0553C12.3355 6.06728 12.323 6.07928 12.3105 6.09128L5.46843 12.6358C5.45477 12.6489 5.44069 12.6623 5.42625 12.676C5.26734 12.8271 5.06614 13.0183 4.92225 13.263Z" stroke="#9DA0A3" stroke-width="2"/>
<path d="M11.9795 6.87508L14.8545 5.04175L17.7295 7.79175L15.8128 10.5417L11.9795 6.87508Z" fill="#9DA0A3"/>
</svg>
