<svg width="23" height="22" viewBox="0 0 23 22" fill="none" xmlns="http://www.w3.org/2000/svg">
<path d="M4.24583 17.9512L4.9603 17.2515L4.24583 17.9512C4.61085 18.3239 5.06302 18.3218 5.2699 18.3037C5.44972 18.288 5.6532 18.2391 5.80012 18.2037C5.81216 18.2008 5.82382 18.198 5.83506 18.1953L8.33126 17.5984C8.34884 17.5942 8.36691 17.59 8.38543 17.5856C8.58951 17.5374 8.84778 17.4765 9.08626 17.3465C9.32474 17.2166 9.51595 17.0326 9.66704 16.8872C9.68075 16.874 9.69414 16.8611 9.7072 16.8486L9.70721 16.8486L9.71523 16.8409L9.71525 16.8409L16.4398 10.4087C16.4532 10.396 16.4665 10.3832 16.4798 10.3705C16.7952 10.0689 17.1002 9.77725 17.3185 9.50364C17.5636 9.19643 17.7977 8.7948 17.8031 8.27057L17.8032 8.27057V8.26028V8.23971H17.8032L17.8031 8.22943C17.7977 7.7052 17.5636 7.30357 17.3185 6.99636C17.1002 6.72275 16.7952 6.43106 16.4798 6.12949C16.4665 6.11677 16.4532 6.10403 16.4398 6.09128L15.7486 6.81392L16.4398 6.09128C16.4273 6.07928 16.4147 6.06728 16.4022 6.0553C16.1122 5.77781 15.8291 5.50684 15.5649 5.3128C15.2666 5.09371 14.8842 4.88867 14.3944 4.88391L14.3944 4.88386H14.3847H14.3652V4.88381L14.3555 4.88391C13.8657 4.88867 13.4834 5.09371 13.1851 5.3128C12.9209 5.50684 12.6377 5.77781 12.3477 6.0553C12.3352 6.06728 12.3226 6.07928 12.3101 6.09128L5.46806 12.6358C5.4544 12.6489 5.44032 12.6623 5.42589 12.676C5.26697 12.8271 5.06578 13.0183 4.92188 13.263L5.52057 13.6151L4.92188 13.263C4.77799 13.5077 4.70862 13.7765 4.65384 13.9888C4.64886 14.008 4.64401 14.0269 4.63923 14.0451L4.03495 16.3572C4.03203 16.3683 4.02898 16.38 4.02583 16.3919C3.98743 16.5381 3.93426 16.7405 3.91477 16.9199C3.89234 17.1264 3.88082 17.5784 4.24583 17.9512Z" stroke="#9DA0A3" stroke-width="2"/>
<path d="M11.9791 6.875L14.8541 5.04167L17.7291 7.79167L15.8125 10.5417L11.9791 6.875Z" fill="#9DA0A3"/>
</svg>
