<svg width="24" height="24" viewBox="0 0 24 24" fill="none" xmlns="http://www.w3.org/2000/svg">
<path d="M8.56186 11.1537C9.44477 11.1537 10.1633 10.4576 10.1677 9.60057C10.1692 9.39666 10.1291 9.19447 10.0498 9.00567C9.97039 8.81687 9.8533 8.64519 9.70523 8.50054C9.55716 8.3559 9.38104 8.24114 9.18705 8.16289C8.99306 8.08464 8.78502 8.04446 8.57495 8.04465C7.69204 8.04465 6.9735 8.74072 6.96914 9.59916C6.96477 10.4576 7.6775 11.1537 8.56186 11.1537ZM17.1451 8.61082C17.1428 9.02302 16.9727 9.41761 16.6719 9.70856C16.3711 9.9995 15.9639 10.1632 15.5393 10.1639C15.3295 10.1641 15.1217 10.124 14.9279 10.0459C14.7341 9.96788 14.5581 9.85337 14.4101 9.70902C14.262 9.56467 14.1449 9.39333 14.0653 9.20486C13.9858 9.01638 13.9454 8.8145 13.9466 8.61082C13.9485 8.19814 14.1186 7.80297 14.4198 7.51169C14.721 7.2204 15.1287 7.05668 15.5538 7.05631C16.4368 7.05631 17.1495 7.7538 17.1451 8.61082Z" fill="#9DA0A3"/>
<path fill-rule="evenodd" clip-rule="evenodd" d="M0.0600671 8.34539C-0.167785 6.76894 0.258085 5.16916 1.24419 3.89721C2.2303 2.62526 3.69605 1.7851 5.31969 1.56116L16.2942 0.0588925C17.0979 -0.0512993 17.9161 -0.0065546 18.702 0.190566C19.4879 0.387686 20.226 0.733311 20.8741 1.20766C21.5221 1.68201 22.0675 2.27577 22.4789 2.95495C22.8903 3.63413 23.1597 4.3854 23.2717 5.16577L23.8753 9.35914C24.8455 16.0855 20.0498 22.3092 13.1509 23.3102C12.7524 23.3794 12.348 23.4232 11.948 23.4754L8.54878 23.9413C7.74508 24.0513 6.92692 24.0064 6.14114 23.8091C5.35535 23.6118 4.61737 23.266 3.96941 22.7915C3.32146 22.317 2.77626 21.7232 2.36502 21.0439C1.95378 20.3647 1.68456 19.6134 1.57279 18.833L0.0600671 8.34539ZM21.1102 5.46227L21.6004 8.85932C21.6448 9.30846 21.5106 9.75709 21.2253 10.1133C20.94 10.4695 20.5252 10.7064 20.0658 10.7753L18.5095 11.0068C17.3468 11.1808 16.273 11.7145 15.448 12.5286C14.6229 13.3427 14.0907 14.3936 13.9306 15.5249C13.1551 15.6848 12.3569 15.7135 11.5713 15.6097C10.764 15.5024 10.1488 15.2722 9.80696 15.0308C9.57318 14.8653 9.28124 14.7967 8.99537 14.8401C8.7095 14.8835 8.45311 15.0354 8.2826 15.2623C8.11209 15.4892 8.04143 15.7726 8.08616 16.0501C8.1309 16.3276 8.28736 16.5765 8.52114 16.742C9.25568 17.2644 10.2608 17.575 11.276 17.7092C12.1488 17.8249 13.1044 17.8221 14.0324 17.6654L14.2593 19.2383C14.324 19.6874 14.2083 20.1436 13.9362 20.5123C13.6641 20.881 13.2564 21.1341 12.7975 21.2192L8.24478 21.8432C7.72477 21.9144 7.19542 21.8853 6.68702 21.7576C6.17861 21.6299 5.70114 21.4061 5.28192 21.0991C4.8627 20.7921 4.50996 20.4079 4.24389 19.9684C3.97782 19.5289 3.80365 19.0429 3.73133 18.538L2.21861 8.0503C2.07086 7.03001 2.34631 5.99451 2.98448 5.17121C3.62265 4.3479 4.57135 3.80411 5.62224 3.65926L16.5968 2.15699C17.1168 2.08586 17.6461 2.11497 18.1545 2.24265C18.6629 2.37033 19.1404 2.59407 19.5596 2.90108C19.9788 3.20808 20.3316 3.59232 20.5976 4.0318C20.8637 4.47128 21.0379 4.95737 21.1102 5.46227ZM21.7269 12.4286C21.5089 14.0075 20.9158 15.5156 19.9945 16.8339C19.0731 18.1522 17.8487 19.2445 16.4179 20.0247C16.4698 19.6655 16.4698 19.301 16.4179 18.9418L16.0935 16.6869C15.9737 15.8588 16.1947 15.0181 16.7086 14.347C17.2226 13.6758 17.9882 13.2281 18.8397 13.1007L20.3946 12.8706C20.8746 12.7985 21.3255 12.6446 21.7269 12.4286Z" fill="#9DA0A3"/>
</svg>
