<svg width="20" height="23" viewBox="0 0 20 23" fill="none" xmlns="http://www.w3.org/2000/svg">
<rect y="0.5" width="19.1304" height="22" rx="9.56522" fill="white"/>
<rect width="19.1304" height="22" transform="translate(0 0.5)" fill="white"/>
<path d="M3.18848 8.75C3.18848 6.15728 3.18848 4.86091 3.88887 4.05546C4.58927 3.25 5.71654 3.25 7.97109 3.25H11.1595C13.414 3.25 14.5413 3.25 15.2417 4.05546C15.9421 4.86091 15.9421 6.15728 15.9421 8.75V15.0086C15.9421 17.4683 15.9421 18.6982 15.2691 19.0743C14.5961 19.4505 13.7552 18.6907 12.0734 17.171L11.5352 16.6847C10.5895 15.8302 10.1167 15.403 9.56529 15.403C9.01391 15.403 8.54108 15.8302 7.59542 16.6847L7.05718 17.171C5.37536 18.6907 4.53445 19.4505 3.86146 19.0743C3.18848 18.6982 3.18848 17.4683 3.18848 15.0086V8.75Z" fill="#B95DD9" stroke="#B95DD9" stroke-width="2"/>
</svg>
