<svg width="24" height="25" viewBox="0 0 24 25" fill="none" xmlns="http://www.w3.org/2000/svg">
<path d="M4.32698 7.13803L5.21799 7.59202H5.21799L4.32698 7.13803ZM4.7682 20.7318L4.06109 20.0247H4.06109L4.7682 20.7318ZM18.362 17.173L18.816 18.064L18.816 18.064L18.362 17.173ZM19.673 15.862L18.782 15.408L19.673 15.862ZM19.673 7.13803L20.564 6.68404V6.68404L19.673 7.13803ZM18.362 5.82698L18.816 4.93597L18.816 4.93597L18.362 5.82698ZM5.63803 5.82698L5.18404 4.93597L5.63803 5.82698ZM7.70711 17.7929L7 17.0858L7.70711 17.7929ZM5 10.3C5 9.44342 5.00078 8.86113 5.03755 8.41104C5.07337 7.97262 5.1383 7.74842 5.21799 7.59202L3.43597 6.68404C3.18868 7.16937 3.09012 7.68608 3.04419 8.24817C2.99922 8.7986 3 9.47642 3 10.3H5ZM5 12.5V10.3H3V12.5H5ZM3 12.5V17.5H5V12.5H3ZM3 17.5V20.4136H5V17.5H3ZM3 20.4136C3 21.7054 4.56185 22.3524 5.4753 21.4389L4.06109 20.0247C4.40757 19.6782 5 19.9236 5 20.4136H3ZM5.4753 21.4389L8.41421 18.5L7 17.0858L4.06109 20.0247L5.4753 21.4389ZM15.2 16.5H8.41421V18.5H15.2V16.5ZM17.908 16.282C17.7516 16.3617 17.5274 16.4266 17.089 16.4624C16.6389 16.4992 16.0566 16.5 15.2 16.5V18.5C16.0236 18.5 16.7014 18.5008 17.2518 18.4558C17.8139 18.4099 18.3306 18.3113 18.816 18.064L17.908 16.282ZM18.782 15.408C18.5903 15.7843 18.2843 16.0903 17.908 16.282L18.816 18.064C19.5686 17.6805 20.1805 17.0686 20.564 16.316L18.782 15.408ZM19 12.7C19 13.5566 18.9992 14.1389 18.9624 14.589C18.9266 15.0274 18.8617 15.2516 18.782 15.408L20.564 16.316C20.8113 15.8306 20.9099 15.3139 20.9558 14.7518C21.0008 14.2014 21 13.5236 21 12.7H19ZM19 10.3V12.7H21V10.3H19ZM18.782 7.59202C18.8617 7.74842 18.9266 7.97262 18.9624 8.41104C18.9992 8.86113 19 9.44342 19 10.3H21C21 9.47642 21.0008 8.7986 20.9558 8.24817C20.9099 7.68608 20.8113 7.16937 20.564 6.68404L18.782 7.59202ZM17.908 6.71799C18.2843 6.90973 18.5903 7.2157 18.782 7.59202L20.564 6.68404C20.1805 5.93139 19.5686 5.31947 18.816 4.93597L17.908 6.71799ZM15.2 6.5C16.0566 6.5 16.6389 6.50078 17.089 6.53755C17.5274 6.57337 17.7516 6.6383 17.908 6.71799L18.816 4.93597C18.3306 4.68868 17.8139 4.59012 17.2518 4.54419C16.7014 4.49922 16.0236 4.5 15.2 4.5V6.5ZM8.8 6.5H15.2V4.5H8.8V6.5ZM6.09202 6.71799C6.24842 6.6383 6.47262 6.57337 6.91104 6.53755C7.36113 6.50078 7.94342 6.5 8.8 6.5V4.5C7.97642 4.5 7.2986 4.49922 6.74817 4.54419C6.18608 4.59012 5.66937 4.68868 5.18404 4.93597L6.09202 6.71799ZM5.21799 7.59202C5.40973 7.21569 5.7157 6.90973 6.09202 6.71799L5.18404 4.93597C4.43139 5.31947 3.81947 5.93139 3.43597 6.68404L5.21799 7.59202ZM8.41421 18.5V16.5C7.88378 16.5 7.37507 16.7107 7 17.0858L8.41421 18.5Z" fill="#C3C7CA"/>
<path d="M8 9.5L16 9.5" stroke="#C3C7CA" stroke-width="2" stroke-linecap="round" stroke-linejoin="round"/>
<path d="M8 13.5L13 13.5" stroke="#C3C7CA" stroke-width="2" stroke-linecap="round" stroke-linejoin="round"/>
</svg>
