<svg width="20" height="21" viewBox="0 0 20 21" fill="none" xmlns="http://www.w3.org/2000/svg">
<path d="M4 8C4 5.64298 4 4.46447 4.63672 3.73223C5.27345 3 6.29824 3 8.34783 3H11.2464C13.296 3 14.3208 3 14.9575 3.73223C15.5942 4.46447 15.5942 5.64298 15.5942 8V13.6897C15.5942 15.9257 15.5942 17.0438 14.9824 17.3857C14.3706 17.7277 13.6061 17.037 12.0772 15.6555L11.5879 15.2133C10.7282 14.4365 10.2984 14.0482 9.7971 14.0482C9.29585 14.0482 8.86601 14.4365 8.00631 15.2133L7.517 15.6555C5.98808 17.037 5.22361 17.7277 4.61181 17.3857C4 17.0438 4 15.9257 4 13.6897V8Z" stroke="#B95DD9" stroke-width="2"/>
</svg>
