<svg width="20" height="20" viewBox="0 0 20 20" fill="none" xmlns="http://www.w3.org/2000/svg">
<path fill-rule="evenodd" clip-rule="evenodd" d="M5.16855 14H3.85108C4.19598 13.2881 4.77858 12.6666 5.83334 12.6666L5.83658 12.6666C5.5256 13.1129 5.31354 13.5779 5.16855 14ZM5.83334 10.6666C3.42134 10.6666 2.3148 12.4175 1.86948 13.5424C1.61972 14.1733 1.75391 14.8206 2.1245 15.287C2.48247 15.7376 3.03917 16 3.63278 16H5.94483H6.91038L6.94354 15.0542C7.10452 14.3707 7.45956 13.5751 8.21077 13.1079L9.44408 12.3409L8.2875 11.4624C7.65331 10.9807 6.83857 10.6666 5.83334 10.6666ZM14.8314 14C14.6864 13.5779 14.4744 13.1129 14.1634 12.6666L14.1667 12.6666C15.2214 12.6666 15.804 13.2881 16.1489 14H14.8314ZM14.1667 10.6666C13.1614 10.6666 12.3467 10.9807 11.7125 11.4624L10.5559 12.3409L11.7892 13.1079C12.5404 13.5751 12.8955 14.3707 13.0564 15.0542L13.0896 16H14.0552H16.3672C16.9608 16 17.5175 15.7376 17.8755 15.287C18.2461 14.8207 18.3803 14.1733 18.1305 13.5424C17.6852 12.4175 16.5787 10.6666 14.1667 10.6666Z" fill="#9DA0A3"/>
<path fill-rule="evenodd" clip-rule="evenodd" d="M11.3333 6.66671C11.3333 7.40309 10.7364 8.00004 10 8.00004C9.26362 8.00004 8.66667 7.40309 8.66667 6.66671C8.66667 5.93033 9.26362 5.33337 10 5.33337C10.7364 5.33337 11.3333 5.93033 11.3333 6.66671ZM12.26 9.11697C11.6659 9.66516 10.8721 10 10 10C9.12794 10 8.3341 9.66516 7.74005 9.11698C7.41337 9.5022 6.97503 9.78231 6.48038 9.91486C5.83993 10.0865 5.15755 9.99662 4.58333 9.6651C4.00912 9.33358 3.59013 8.78754 3.41852 8.14709C3.24691 7.50664 3.33675 6.82425 3.66827 6.25004C3.99979 5.67583 4.54584 5.25683 5.18629 5.08523C5.78537 4.9247 6.42116 4.99294 6.97077 5.27378C7.49831 4.12843 8.65631 3.33337 10 3.33337C11.3437 3.33337 12.5017 4.12843 13.0292 5.27377C13.1844 5.19447 13.3487 5.13103 13.5196 5.08523C14.1601 4.91362 14.8425 5.00346 15.4167 5.33498C15.9909 5.6665 16.4099 6.21254 16.5815 6.85299C16.7531 7.49344 16.6633 8.17583 16.3317 8.75004C16.0002 9.32425 15.4542 9.74325 14.8137 9.91486C14.1733 10.0865 13.4909 9.99662 12.9167 9.6651C12.6655 9.52009 12.444 9.33403 12.26 9.11697ZM14.0373 7.01708C14.1653 6.98276 14.3018 7.00072 14.4167 7.06703C14.5315 7.13333 14.6153 7.24254 14.6496 7.37063C14.684 7.49872 14.666 7.6352 14.5997 7.75004C14.5334 7.86488 14.4242 7.94868 14.2961 7.983C14.168 8.01733 14.0315 7.99936 13.9167 7.93305C13.8018 7.86675 13.718 7.75754 13.6837 7.62945C13.6494 7.50136 13.6674 7.36488 13.7337 7.25004C13.8 7.1352 13.9092 7.0514 14.0373 7.01708ZM6.08333 7.06703C5.96849 7.00072 5.83201 6.98276 5.70393 7.01708C5.57584 7.0514 5.46663 7.1352 5.40032 7.25004C5.33402 7.36488 5.31605 7.50136 5.35037 7.62945C5.38469 7.75754 5.46849 7.86675 5.58333 7.93305C5.69818 7.99936 5.83465 8.01733 5.96274 7.983C6.09083 7.94868 6.20004 7.86488 6.26635 7.75004C6.33265 7.6352 6.35062 7.49872 6.3163 7.37063C6.28198 7.24254 6.19818 7.13333 6.08333 7.06703ZM12.2576 13.4873C12.6366 13.8807 12.8647 14.3751 12.9983 14.8334H7.0017C7.13533 14.3751 7.3634 13.8807 7.74237 13.4873C8.15981 13.054 8.83172 12.6667 10 12.6667C11.1683 12.6667 11.8402 13.054 12.2576 13.4873ZM10 10.6667C8.32113 10.6667 7.11864 11.2521 6.30209 12.0997C5.51347 12.9182 5.15683 13.9051 4.99148 14.6187C4.69057 15.9172 5.78217 16.8334 6.83333 16.8334H13.1667C14.2178 16.8334 15.3094 15.9172 15.0085 14.6187C14.8432 13.9051 14.4865 12.9182 13.6979 12.0997C12.8814 11.2521 11.6789 10.6667 10 10.6667Z" fill="#9DA0A3"/>
</svg>
