<svg width="20" height="19" viewBox="0 0 20 19" fill="none" xmlns="http://www.w3.org/2000/svg">
<path fill-rule="evenodd" clip-rule="evenodd" d="M7.00001 2.5L6.93418 2.5C6.04769 2.49995 5.28387 2.49991 4.67221 2.58215C4.0167 2.67028 3.38835 2.86902 2.87868 3.37868C2.36902 3.88835 2.17028 4.5167 2.08215 5.17221C1.99991 5.78387 1.99995 6.54769 2 7.43417L2 7.5V11.5L2 11.5658C1.99995 12.4523 1.99991 13.2161 2.08215 13.8278C2.17028 14.4833 2.36902 15.1117 2.87868 15.6213C3.38835 16.131 4.0167 16.3297 4.67221 16.4179C5.28387 16.5001 6.04769 16.5001 6.93417 16.5L7.00001 16.5H13.6667L13.7325 16.5C14.619 16.5001 15.3828 16.5001 15.9945 16.4179C16.65 16.3297 17.2783 16.131 17.788 15.6213C18.2977 15.1117 18.4964 14.4833 18.5845 13.8278C18.6668 13.2161 18.6667 12.4523 18.6667 11.5658V11.5V7.5V7.43417C18.6667 6.54769 18.6668 5.78387 18.5845 5.17221C18.4964 4.5167 18.2977 3.88835 17.788 3.37868C17.2783 2.86902 16.65 2.67028 15.9945 2.58215C15.3828 2.49991 14.619 2.49995 13.7325 2.5L13.6667 2.5H7.00001ZM4.2929 4.7929C4.36902 4.71677 4.50497 4.62263 4.93871 4.56431C5.40122 4.50213 6.02893 4.5 7.00001 4.5H13.6667C14.6377 4.5 15.2655 4.50213 15.728 4.56431C16.1617 4.62263 16.2977 4.71677 16.3738 4.7929C16.4499 4.86902 16.5441 5.00497 16.6024 5.43871C16.6215 5.58122 16.635 5.73941 16.6444 5.9185L10.8122 9.09972C10.5137 9.26253 10.153 9.26253 9.85449 9.09972L4.02224 5.9185C4.03169 5.73941 4.04515 5.58122 4.06431 5.43871C4.12263 5.00497 4.21677 4.86902 4.2929 4.7929ZM4 8.18455V11.5C4 12.4711 4.00213 13.0988 4.06431 13.5613C4.12263 13.995 4.21677 14.131 4.2929 14.2071C4.36902 14.2832 4.50497 14.3774 4.93871 14.4357C5.40122 14.4979 6.02893 14.5 7.00001 14.5H13.6667C14.6377 14.5 15.2655 14.4979 15.728 14.4357C16.1617 14.3774 16.2977 14.2832 16.3738 14.2071C16.4499 14.131 16.5441 13.995 16.6024 13.5613C16.6645 13.0988 16.6667 12.4711 16.6667 11.5V8.18455L11.7699 10.8555C10.8745 11.3439 9.79221 11.3439 8.89678 10.8555L4 8.18455Z" fill="#9DA0A3"/>
</svg>
