<svg width="20" height="20" viewBox="0 0 20 20" fill="none" xmlns="http://www.w3.org/2000/svg">
<path fill-rule="evenodd" clip-rule="evenodd" d="M2.83824 2.83826C1.66666 4.00983 1.66666 5.89545 1.66666 9.66669V10.3334C1.66666 14.1046 1.66666 15.9902 2.83824 17.1618C4.00981 18.3334 5.89543 18.3334 9.66667 18.3334H10.3333C14.1046 18.3334 15.9902 18.3334 17.1618 17.1618C18.3333 15.9902 18.3333 14.1046 18.3333 10.3333V9.66669C18.3333 6.99477 18.3333 5.26937 17.9167 4.07384V14.1667C17.1163 14.1667 16.3487 13.8487 15.7828 13.2828L15.1564 12.6564C14.7763 12.2764 14.5863 12.0863 14.3929 11.9655C13.7446 11.5605 12.9221 11.5605 12.2738 11.9655C12.0804 12.0863 11.8903 12.2764 11.5103 12.6564L11.416 12.7507C11.0856 13.0811 10.9205 13.2462 10.7617 13.3206C10.3693 13.5046 9.90303 13.4148 9.60698 13.0983C9.48723 12.9702 9.39521 12.7555 9.21117 12.3261L9.16666 12.2222C8.7189 11.1775 8.49503 10.6551 8.1801 10.3651C7.62244 9.85164 6.82243 9.69757 6.11397 9.96721C5.71387 10.1195 5.31199 10.5214 4.50824 11.3251L2.91666 12.9167V2.76257C2.89017 2.78724 2.86403 2.81247 2.83824 2.83826Z" fill="#9DA0A3"/>
<path d="M2.66666 9.66663C2.66666 7.75274 2.66879 6.41792 2.80419 5.41079C2.93573 4.43242 3.17633 3.91432 3.54534 3.54531C3.91436 3.17629 4.43246 2.93569 5.41082 2.80416C6.41796 2.66875 7.75278 2.66663 9.66666 2.66663H10.3333C12.2472 2.66663 13.582 2.66875 14.5892 2.80416C15.5675 2.93569 16.0856 3.17629 16.4547 3.54531C16.8237 3.91432 17.0643 4.43242 17.1958 5.41079C17.3312 6.41792 17.3333 7.75274 17.3333 9.66663V10.3333C17.3333 12.2472 17.3312 13.582 17.1958 14.5891C17.0643 15.5675 16.8237 16.0856 16.4547 16.4546C16.0856 16.8236 15.5675 17.0642 14.5892 17.1958C13.582 17.3312 12.2472 17.3333 10.3333 17.3333H9.66667C7.75278 17.3333 6.41796 17.3312 5.41083 17.1958C4.43246 17.0642 3.91436 16.8236 3.54534 16.4546C3.17633 16.0856 2.93573 15.5675 2.80419 14.5891C2.66879 13.582 2.66666 12.2472 2.66666 10.3333V9.66663Z" stroke="#9DA0A3" stroke-width="2"/>
<circle cx="12.5" cy="7.50004" r="1.66667" fill="#9DA0A3"/>
</svg>
