<svg width="20" height="20" viewBox="0 0 20 20" fill="none" xmlns="http://www.w3.org/2000/svg">
<path fill-rule="evenodd" clip-rule="evenodd" d="M13.277 6.30666C13.277 7.45391 12.2388 8.61332 10.6654 8.61332C9.09194 8.61332 8.05376 7.45391 8.05376 6.30666C8.05376 5.1594 9.09194 4 10.6654 4C12.2388 4 13.277 5.1594 13.277 6.30666ZM15.277 6.30666C15.277 8.68516 13.2123 10.6133 10.6654 10.6133C8.11845 10.6133 6.05376 8.68516 6.05376 6.30666C6.05376 3.92816 8.11845 2 10.6654 2C13.2123 2 15.277 3.92816 15.277 6.30666ZM14.2115 15.0648C14.8186 15.7112 15.1296 16.5035 15.2853 17.15H6.04554C6.20132 16.5035 6.51225 15.7112 7.11938 15.0648C7.76418 14.3783 8.82557 13.7666 10.6654 13.7666C12.5053 13.7666 13.5667 14.3783 14.2115 15.0648ZM10.6654 11.7666C8.31961 11.7666 6.71495 12.5741 5.66162 13.6955C4.63743 14.7859 4.2162 16.085 4.03914 16.9618C3.78174 18.2363 4.83855 19.15 5.90092 19.15H15.43C16.4923 19.15 17.5491 18.2363 17.2917 16.9618C17.1147 16.085 16.6934 14.7859 15.6693 13.6955C14.6159 12.5741 13.0113 11.7666 10.6654 11.7666Z" fill="#9DA0A3"/>
</svg>
