<svg width="20" height="22" viewBox="0 0 20 22" fill="none" xmlns="http://www.w3.org/2000/svg">
<path d="M3.18842 8.25C3.18842 5.65728 3.18842 4.36091 3.88881 3.55546C4.58921 2.75 5.71648 2.75 7.97102 2.75H11.1594C13.414 2.75 14.5412 2.75 15.2416 3.55546C15.942 4.36091 15.942 5.65728 15.942 8.25V14.5086C15.942 16.9683 15.942 18.1982 15.2691 18.5743C14.5961 18.9505 13.7552 18.1907 12.0733 16.671L11.5351 16.1847C10.5894 15.3302 10.1166 14.903 9.56523 14.903C9.01385 14.903 8.54102 15.3302 7.59536 16.1847L7.05712 16.671C5.3753 18.1907 4.53439 18.9505 3.8614 18.5743C3.18842 18.1982 3.18842 16.9683 3.18842 14.5086V8.25Z" stroke="#9DA0A3" stroke-width="2"/>
</svg>
