<svg width="80" height="80" viewBox="0 0 80 80" fill="none" xmlns="http://www.w3.org/2000/svg">
<rect width="80" height="80" rx="40" fill="#FBDDFF"/>
<path fill-rule="evenodd" clip-rule="evenodd" d="M29.7145 52.5714C19.5107 52.5714 13.6452 57.736 10.2734 63.6736C5.09506 57.1798 2 48.9514 2 40C2 19.0132 19.0132 2 40 2C60.9868 2 78 19.0132 78 40C78 48.8271 74.9903 56.9513 69.941 63.4022C67.3448 60.1995 63.1973 57.6413 56.5716 57.6413C52.4071 57.6413 49.2217 58.6519 46.7851 60.198C43.2304 55.8561 37.852 52.5714 29.7145 52.5714ZM40 80C62.0914 80 80 62.0914 80 40C80 17.9086 62.0914 0 40 0C17.9086 0 0 17.9086 0 40C0 62.0914 17.9086 80 40 80ZM43.6886 33.1112C43.6886 41.2991 36.7781 47.9366 28.2535 47.9366C19.7289 47.9366 12.8183 41.2991 12.8183 33.1112C12.8183 24.9233 19.7289 18.2857 28.2535 18.2857C36.7781 18.2857 43.6886 24.9233 43.6886 33.1112ZM56.692 54.2128C63.5209 54.2128 69.0568 48.9844 69.0568 42.5349C69.0568 36.0855 63.5209 30.8571 56.692 30.8571C49.8631 30.8571 44.3271 36.0855 44.3271 42.5349C44.3271 48.9844 49.8631 54.2128 56.692 54.2128Z" fill="#9747FF"/>
</svg>
