<svg width="25" height="25" viewBox="0 0 25 25" fill="none" xmlns="http://www.w3.org/2000/svg">
<path d="M4.95067 14.4082L11.9033 20.9395C12.1428 21.1644 12.2625 21.2769 12.4037 21.3046C12.4673 21.3171 12.5327 21.3171 12.5963 21.3046C12.7375 21.2769 12.8572 21.1644 13.0967 20.9395L20.0493 14.4082C22.0055 12.5706 22.243 9.5466 20.5978 7.42607L20.2885 7.02734C18.3203 4.49058 14.3696 4.91601 12.9867 7.81365C12.7913 8.22296 12.2087 8.22296 12.0133 7.81365C10.6304 4.91601 6.67972 4.49058 4.71154 7.02735L4.40219 7.42607C2.75695 9.5466 2.9945 12.5706 4.95067 14.4082Z" fill="#B95DD9" stroke="#B95DD9" stroke-width="2"/>
</svg>
