<svg width="24" height="25" viewBox="0 0 24 25" fill="none" xmlns="http://www.w3.org/2000/svg">
<path d="M4.61777 14.264L11.3803 20.8929C11.6331 21.1407 11.7595 21.2646 11.9108 21.2919C11.9696 21.3025 12.0298 21.3025 12.0885 21.2919C12.2399 21.2646 12.3663 21.1407 12.619 20.8929L19.3816 14.264C21.192 12.4893 21.4139 9.6504 19.9013 7.61596L19.4958 7.07068C17.6327 4.56489 13.7652 4.9732 12.4664 7.81281C12.2836 8.21252 11.7157 8.21253 11.5329 7.81281C10.2341 4.9732 6.36665 4.56489 4.50351 7.07068L4.09808 7.61597C2.5854 9.6504 2.80733 12.4893 4.61777 14.264Z" stroke="#C3C7CA" stroke-width="2"/>
</svg>
