<svg width="29" height="25" viewBox="0 0 29 25" fill="none" xmlns="http://www.w3.org/2000/svg">
<path fill-rule="evenodd" clip-rule="evenodd" d="M12.3815 0.666668C10.6702 0.666668 9.14842 1.75538 8.59582 3.37507L8.276 4.31247C7.9997 5.12231 7.23881 5.66667 6.38313 5.66667H4.70587C2.49673 5.66667 0.705872 7.45753 0.705872 9.66667V20.3333C0.705872 22.5425 2.49673 24.3333 4.70587 24.3333H24.2941C26.5033 24.3333 28.2941 22.5425 28.2941 20.3333V9.66667C28.2941 7.45753 26.5032 5.66667 24.2941 5.66667H22.6168C21.7612 5.66667 21.0003 5.12231 20.724 4.31247L20.4042 3.37507C19.8516 1.75538 18.3298 0.666668 16.6184 0.666668H12.3815ZM10.4887 4.02087C10.765 3.21102 11.5259 2.66667 12.3815 2.66667H16.6184C17.4741 2.66667 18.235 3.21102 18.5113 4.02087L18.8311 4.95827C19.3837 6.57796 20.9055 7.66667 22.6168 7.66667H24.2941C25.3987 7.66667 26.2941 8.5621 26.2941 9.66667V20.3333C26.2941 21.4379 25.3987 22.3333 24.2941 22.3333H4.70587C3.6013 22.3333 2.70587 21.4379 2.70587 20.3333V9.66667C2.70587 8.5621 3.6013 7.66667 4.70587 7.66667H6.38313C8.09449 7.66667 9.61627 6.57796 10.1689 4.95827L10.4887 4.02087ZM18.4706 15C18.4706 16.6133 17.1189 18 15.3529 18C13.587 18 12.2353 16.6133 12.2353 15C12.2353 13.3867 13.587 12 15.3529 12C17.1189 12 18.4706 13.3867 18.4706 15ZM20.4706 15C20.4706 17.7614 18.1793 20 15.3529 20C12.5265 20 10.2353 17.7614 10.2353 15C10.2353 12.2386 12.5265 10 15.3529 10C18.1793 10 20.4706 12.2386 20.4706 15Z" fill="#848689"/>
</svg>
