<svg width="26" height="24" viewBox="0 0 26 24" fill="none" xmlns="http://www.w3.org/2000/svg">
<path fill-rule="evenodd" clip-rule="evenodd" d="M11.2919 12.0812L4.59281 10.0832C1.97462 9.30238 0.665527 8.91195 0.665527 8.16667C0.665527 7.42139 1.97462 7.03096 4.59281 6.25009L22.8192 0.81414C24.4972 0.313697 25.3362 0.0634747 25.7591 0.515584C26.1819 0.967693 25.8763 1.78811 25.265 3.42893L19.0408 20.136C18.2544 22.2468 17.8612 23.3022 17.1666 23.3022C16.472 23.3022 16.0789 22.2468 15.2925 20.136L12.7916 13.4231L19.4168 7.49524C19.8284 7.12698 19.8635 6.49479 19.4952 6.08321C19.127 5.67162 18.4948 5.6365 18.0832 6.00476L11.2919 12.0812Z" fill="#E358FA"/>
</svg>
