<svg width="26" height="24" viewBox="0 0 26 24" fill="none" xmlns="http://www.w3.org/2000/svg">
<path fill-rule="evenodd" clip-rule="evenodd" d="M11.2923 12.0813L4.59329 10.0833C1.97511 9.30244 0.666016 8.91201 0.666016 8.16672C0.666016 7.42144 1.97511 7.03101 4.59329 6.25015L22.8197 0.814194C24.4977 0.31375 25.3367 0.0635281 25.7595 0.515637C26.1824 0.967746 25.8768 1.78816 25.2655 3.42899L19.0413 20.1361C18.2549 22.2469 17.8617 23.3023 17.1671 23.3023C16.4725 23.3023 16.0793 22.2469 15.293 20.1361L12.7921 13.4231L19.4173 7.4953C19.8288 7.12704 19.864 6.49485 19.4957 6.08326C19.1274 5.67168 18.4953 5.63655 18.0837 6.00481L11.2923 12.0813Z" fill="#9747FF"/>
</svg>
