<svg width="38" height="34" viewBox="0 0 38 34" fill="none" xmlns="http://www.w3.org/2000/svg">
<path fill-rule="evenodd" clip-rule="evenodd" d="M16.2919 18.0812L9.59281 16.0832C6.97462 15.3024 5.66553 14.912 5.66553 14.1667C5.66553 13.4214 6.97462 13.031 9.59281 12.2501L27.8192 6.81414C29.4972 6.3137 30.3362 6.06347 30.7591 6.51558C31.1819 6.96769 30.8763 7.78811 30.265 9.42893L24.0408 26.136C23.2544 28.2468 22.8612 29.3022 22.1666 29.3022C21.472 29.3022 21.0789 28.2468 20.2925 26.136L17.7916 19.4231L24.4168 13.4952C24.8284 13.127 24.8635 12.4948 24.4952 12.0832C24.127 11.6716 23.4948 11.6365 23.0832 12.0048L16.2919 18.0812Z" fill="#9DA0A3"/>
</svg>
