<svg width="38" height="35" viewBox="0 0 38 35" fill="none" xmlns="http://www.w3.org/2000/svg">
<path fill-rule="evenodd" clip-rule="evenodd" d="M16.2923 18.5813L9.59329 16.5833C6.97511 15.8024 5.66602 15.412 5.66602 14.6667C5.66602 13.9214 6.97511 13.531 9.59329 12.7501L27.8197 7.31419C29.4977 6.81375 30.3367 6.56353 30.7595 7.01564C31.1824 7.46775 30.8768 8.28816 30.2655 9.92899L24.0413 26.6361C23.2549 28.7469 22.8617 29.8023 22.1671 29.8023C21.4725 29.8023 21.0793 28.7469 20.293 26.6361L17.7921 19.9231L24.4173 13.9953C24.8288 13.627 24.864 12.9948 24.4957 12.5833C24.1274 12.1717 23.4953 12.1366 23.0837 12.5048L16.2923 18.5813Z" fill="#9747FF"/>
</svg>
