<svg width="24" height="24" viewBox="0 0 24 24" fill="none" xmlns="http://www.w3.org/2000/svg">
<circle cx="12" cy="12" r="11" fill="white" stroke="#9DA0A3" stroke-width="2"/>
<circle cx="9" cy="10.5" r="1.5" fill="#9DA0A3"/>
<circle cx="15" cy="10.5" r="1.5" fill="#9DA0A3"/>
<path d="M7.98606 15.769L7.97853 15.7467C7.97853 15.7467 7.97853 15.7467 7.97853 15.7467L7.98606 15.769ZM7.98606 15.769C7.98607 15.769 7.98607 15.769 7.98607 15.769L7.98606 15.769ZM8.11271 15.8308C8.15422 15.8622 8.19707 15.9052 8.23367 15.9587C8.54321 16.4112 8.93244 16.808 9.3857 17.1283C10.1887 17.6956 11.1512 17.9932 12.1343 17.978C13.1174 17.9629 14.0703 17.6358 14.8554 17.0439C15.2986 16.7098 15.6754 16.3012 15.9708 15.8394C16.0057 15.7847 16.0472 15.7405 16.0878 15.7078C15.7783 16.2337 15.3669 16.697 14.874 17.0686C14.0836 17.6643 13.1244 17.9936 12.1348 18.0089C11.1451 18.0241 10.1762 17.7246 9.3679 17.1535C8.86372 16.7973 8.43825 16.3469 8.11271 15.8308ZM7.95551 15.7795C7.9555 15.7794 7.95574 15.7793 7.95627 15.7791C7.95579 15.7794 7.95553 15.7795 7.95551 15.7795Z" fill="white" stroke="#9DA0A3" stroke-width="2"/>
</svg>
