<svg width="26" height="26" viewBox="0 0 26 26" fill="none" xmlns="http://www.w3.org/2000/svg">
<circle cx="13" cy="13" r="11" fill="white" stroke="#9747FF" stroke-width="2"/>
<circle cx="10" cy="11.5" r="1.5" fill="#9747FF"/>
<circle cx="16" cy="11.5" r="1.5" fill="#9747FF"/>
<path d="M8.98606 16.769L8.97853 16.7467C8.97853 16.7467 8.97853 16.7467 8.97853 16.7467L8.98606 16.769ZM8.98606 16.769C8.98607 16.769 8.98607 16.769 8.98607 16.769L8.98606 16.769ZM9.11271 16.8308C9.15422 16.8622 9.19707 16.9052 9.23367 16.9587C9.54321 17.4112 9.93244 17.808 10.3857 18.1283C11.1887 18.6956 12.1512 18.9932 13.1343 18.978C14.1174 18.9629 15.0703 18.6358 15.8554 18.0439C16.2986 17.7098 16.6754 17.3012 16.9708 16.8394C17.0057 16.7847 17.0472 16.7405 17.0878 16.7078C16.7783 17.2337 16.3669 17.697 15.874 18.0686C15.0836 18.6643 14.1244 18.9936 13.1348 19.0089C12.1451 19.0241 11.1762 18.7246 10.3679 18.1535C9.86372 17.7973 9.43825 17.3469 9.11271 16.8308ZM8.95551 16.7795C8.9555 16.7794 8.95574 16.7793 8.95627 16.7791C8.95579 16.7794 8.95553 16.7795 8.95551 16.7795Z" fill="white" stroke="#9747FF" stroke-width="2"/>
</svg>
