<svg width="23" height="23" viewBox="0 0 23 23" fill="none" xmlns="http://www.w3.org/2000/svg">
<path fill-rule="evenodd" clip-rule="evenodd" d="M10.9959 2L5.48147 2C4.39691 2 3.68409 2.00213 3.15603 2.07312C2.65673 2.14025 2.47479 2.25203 2.36341 2.36341C2.25203 2.47479 2.14025 2.65673 2.07312 3.15603C2.00213 3.68409 2 4.39692 2 5.48148V16.6852C2 17.7697 2.00213 18.4826 2.07312 19.0106C2.14025 19.5099 2.25203 19.6919 2.36341 19.8033C2.47479 19.9146 2.65673 20.0264 3.15602 20.0935C3.68409 20.1645 4.39691 20.1667 5.48147 20.1667H16.6851C17.7697 20.1667 18.4825 20.1645 19.0106 20.0935C19.5099 20.0264 19.6918 19.9146 19.8032 19.8033C19.9146 19.6919 20.0264 19.5099 20.0935 19.0106C20.1645 18.4826 20.1666 17.7697 20.1666 16.6852V11.2942H14.9281L14.8687 11.2942C14.2286 11.2943 13.6554 11.2943 13.1918 11.2347C12.6894 11.17 12.1668 11.0201 11.7339 10.6058C11.2948 10.1856 11.1297 9.66809 11.0593 9.16691C10.9957 8.71461 10.9958 8.15834 10.9958 7.55082V7.5508L10.9959 7.48841V2ZM20.1666 9.2942V9.29407V9.29388V9.29369V9.29349V9.2933V9.29311V9.29292V9.29272V9.29253V9.29234V9.29215V9.29196V9.29176V9.29157V9.29138V9.29119V9.291V9.29081V9.29062V9.29043V9.29024V9.29004V9.28985V9.28966V9.28947V9.28928V9.28909V9.2889V9.28871V9.28852V9.28833V9.28814V9.28795V9.28776V9.28758V9.28739V9.2872V9.28701V9.28682V9.28663V9.28644V9.28625V9.28607V9.28588V9.28569V9.2855V9.28531V9.28513V9.28494V9.28475V9.28456V9.28438V9.28419V9.284V9.28381V9.28363V9.28344V9.28325V9.28307V9.28288V9.2827V9.28251V9.28232V9.28214V9.28195V9.28177V9.28158V9.28139V9.28121V9.28102V9.28084V9.28065V9.28047V9.28028V9.2801V9.27991V9.27973V9.27955V9.27936V9.27918V9.27899V9.27881V9.27863V9.27844V9.27826V9.27807V9.27789V9.27771V9.27753V9.27734V9.27716V9.27698V9.27679V9.27661V9.27643V9.27625V9.27606V9.27588V9.2757V9.27552V9.27534V9.27515V9.27497V9.27479V9.27461V9.27443V9.27425V9.27407V9.27389V9.27371V9.27352V9.27334V9.27316V9.27298V9.2728V9.27262V9.27244V9.27226V9.27208V9.2719V9.27172V9.27155V9.27137V9.27119V9.27101V9.27083V9.27065V9.27047V9.27029V9.27011V9.26994V9.26976V9.26958V9.2694V9.26922V9.26904V9.26887V9.26869V9.26851V9.26833V9.26816V9.26798V9.2678V9.26763V9.26745V9.26727V9.2671V9.26692V9.26674V9.26657V9.26639V9.26621V9.26604V9.26586V9.26569V9.26551V9.26533V9.26516V9.26498V9.26481V9.26463V9.26446V9.26428V9.26411V9.26393V9.26376V9.26359V9.26341V9.26324V9.26306V9.26289V9.26271V9.26254V9.26237V9.26219V9.26202V9.26185V9.26167V9.2615V9.26133V9.26115V9.26098V9.26081V9.26064V9.26046V9.26029V9.26012V9.25995V9.25977V9.2596V9.25943V9.25926V9.25909V9.25892V9.25874V9.25857V9.2584V9.25823V9.25806V9.25789V9.25772V9.25755V9.25738V9.25721V9.25704V9.25687V9.2567V9.25653V9.25636V9.25619V9.25602V9.25585V9.25568V9.25551V9.25534V9.25517V9.255V9.25483V9.25466V9.2545V9.25433V9.25416V9.25399V9.25382V9.25365V9.25349V9.25332V9.25315V9.25298V9.25281V9.25265V9.25248V9.25231V9.25214V9.25198V9.25181V9.25164V9.25148V9.25131V9.25114V9.25098V9.25081V9.25065V9.25048V9.25031V9.25015V9.24998V9.24982V9.24965V9.24948V9.24932V9.24915V9.24899V9.24882V9.24866V9.24849V9.24833V9.24816V9.248V9.24784V9.24767V9.24751V9.24734V9.24718V9.24702V9.24685V9.24669V9.24652V9.24636V9.2462V9.24603V9.24587V9.24571V9.24555V9.24538V9.24522V9.24506V9.24489V9.24473V9.24457V9.24441V9.24425V9.24408V9.24392V9.24376V9.2436V9.24344V9.24328V9.24311V9.24295V9.24279V9.24263V9.24247V9.24231V9.24215V9.24199V9.24183V9.24167V9.24151V9.24135V9.24119V9.24103V9.24087V9.24071V9.24055V9.24039V9.24023V9.24007V9.23991V9.23975V9.23959V9.23943V9.23927V9.23912V9.23896V9.2388V9.23864V9.23848V9.23832V9.23817V9.23801V9.23785V9.23769V9.23753V9.23738V9.23722V9.23706V9.2369V9.23675V9.23659V9.23643V9.23628V9.23612V9.23596V9.23581V9.23565V9.23549V9.23534V9.23518V9.23503V9.23487V9.23472V9.23456V9.2344V9.23425V9.23409V9.23394V9.23378V9.23363V9.23347V9.23332V9.23316V9.23301V9.23285V9.2327V9.23254V9.23239V9.23224V9.23208V9.23193V9.23177V9.23162V9.23147V9.23131V9.23116V9.23101V9.23085V9.2307V9.23055V9.23039V9.23024V9.23009V9.22994V9.22978V9.22963V9.22948V9.22933V9.22918V9.22902V9.22887V9.22872V9.22857V9.22842V9.22827V9.22811V9.22796V9.22781V9.22766V9.22751V9.22736V9.22721V9.22706V9.22691V9.22676V9.22661V9.22646V9.22631V9.22616V9.22601V9.22586V9.22571V9.22556V9.22541V9.22526V9.22511V9.22496C20.1666 9.1819 20.1666 9.14914 20.1664 9.12072C20.1662 9.09255 20.1658 9.07442 20.1653 9.06177L20.1652 9.05852L20.1627 9.05132C20.1579 9.03779 20.152 9.02179 20.1423 8.99552L20.1419 8.99462C20.1394 8.98753 20.1347 8.97493 20.1132 8.94376C20.0855 8.90369 20.0273 8.82989 19.9069 8.70955L19.8992 8.70184L19.8916 8.69397L13.7307 2.26072C13.5754 2.10758 13.4372 2.04512 13.3579 2.01871C13.3248 2.00766 13.3001 2.00235 13.2869 2H13.2862H13.2851H13.2841H13.2831H13.282H13.281H13.2799H13.2788H13.2777H13.2766H13.2755H13.2744H13.2732H13.2721H13.2709H13.2697H13.2685H13.2673H13.2661H13.2649H13.2637H13.2624H13.2612H13.2599H13.2586H13.2573H13.256H13.2547H13.2534H13.252H13.2507H13.2493H13.2479H13.2466H13.2452H13.2438H13.2423H13.2409H13.2395H13.238H13.2366H13.2351H13.2336H13.2321H13.2306H13.2291H13.2276H13.226H13.2245H13.2229H13.2214H13.2198H13.2182H13.2166H13.215H13.2134H13.2118H13.2101H13.2085H13.2068H13.2051H13.2035H13.2018H13.2001H13.1984H13.1966H13.1949H13.1932H13.1914H13.1897H13.1879H13.1861H13.1843H13.1825H13.1807H13.1789H13.1771H13.1753H13.1734H13.1716H13.1697H13.1678H13.166H13.1641H13.1622H13.1603H13.1584H13.1564H13.1545H13.1525H13.1506H13.1486H13.1467H13.1447H13.1427H13.1407H13.1387H13.1367H13.1347H13.1326H13.1306H13.1285H13.1265H13.1244H13.1224H13.1203H13.1182H13.1161H13.114H13.1119H13.1097H13.1076H13.1055H13.1033H13.1012H13.099H13.0969H13.0947H13.0925H13.0903H13.0881H13.0859H13.0837H13.0814H13.0792H13.077H13.0747H13.0725H13.0702H13.0679H13.0657H13.0634H13.0611H13.0588H13.0565H13.0542H13.0519H13.0495H13.0472H13.0449H13.0425H13.0402H13.0378H13.0354H13.0331H13.0307H13.0283H13.0259H13.0235H13.0211H13.0187H13.0163H13.0138H13.0114H13.009H13.0065H13.0041H13.0016H12.9991H12.9967H12.9959V7.48841C12.9959 8.17925 12.9982 8.59231 13.0398 8.88863C13.0589 9.02431 13.0815 9.09368 13.0957 9.12676C13.106 9.15066 13.1117 9.15613 13.1161 9.16028L13.1166 9.16079L13.1168 9.16094C13.1217 9.16569 13.1322 9.17572 13.1694 9.19036C13.2147 9.2082 13.2977 9.23182 13.4469 9.25102C13.7675 9.29226 14.2099 9.2942 14.9281 9.2942H20.1666ZM12.2037 0L5.48147 4.41074e-06L5.41417 2.38419e-06C4.41537 -4.29153e-05 3.56668 -8.14199e-05 2.88953 0.0909589C2.16846 0.187905 1.49411 0.404278 0.949192 0.949196C0.404276 1.49411 0.187904 2.16846 0.0909582 2.88954C-8.17936e-05 3.56668 -4.3289e-05 4.41538 2.01049e-06 5.41419L4.03705e-06 5.48148V16.6852L2.01049e-06 16.7525C-4.3289e-05 17.7513 -8.17936e-05 18.6 0.0909582 19.2771C0.187904 19.9982 0.404276 20.6725 0.949192 21.2175C1.49411 21.7624 2.16846 21.9788 2.88953 22.0757C3.56665 22.1667 4.4153 22.1667 5.41405 22.1667H5.4142L5.48147 22.1667H16.6851L16.7524 22.1667H16.7526C17.7513 22.1667 18.6 22.1667 19.2771 22.0757C19.9982 21.9788 20.6725 21.7624 21.2174 21.2175C21.7623 20.6725 21.9787 19.9982 22.0756 19.2771C22.1667 18.6 22.1666 17.7514 22.1666 16.7527V16.7525L22.1666 16.6852V9.3154V9.31519V9.31499V9.31478V9.31458V9.31437V9.31417V9.31396V9.31376V9.31355V9.31335V9.31314V9.31294V9.31274V9.31253V9.31233V9.31212V9.31192V9.31172V9.31151V9.31131V9.31111V9.3109V9.3107V9.3105V9.3103V9.31009V9.30989V9.30969V9.30949V9.30928V9.30908V9.30888V9.30868V9.30848V9.30827V9.30807V9.30787V9.30767V9.30747V9.30727V9.30707V9.30687V9.30667V9.30647V9.30627V9.30607V9.30587V9.30567V9.30547V9.30527V9.30507V9.30487V9.30467V9.30447V9.30427V9.30407V9.30387V9.30367V9.30347V9.30328V9.30308V9.30288V9.30268V9.30248V9.30228V9.30209V9.30189V9.30169V9.30149V9.3013V9.3011V9.3009V9.3007V9.30051V9.30031V9.30011V9.29992V9.29972V9.29952V9.29933V9.29913V9.29894V9.29874V9.29854V9.29835V9.29815V9.29796V9.29776V9.29757V9.29737V9.29718V9.29698V9.29679V9.29659V9.2964V9.2962V9.29601V9.29582V9.29562V9.29543V9.29523V9.29504V9.29485V9.29465V9.29446V9.29427V9.29407V9.29388V9.29369V9.29349V9.2933V9.29311V9.29292V9.29272V9.29253V9.29234V9.29215V9.29196V9.29176V9.29157V9.29138V9.29119V9.291V9.29081V9.29062V9.29043V9.29024V9.29004V9.28985V9.28966V9.28947V9.28928V9.28909V9.2889V9.28871V9.28852V9.28833V9.28814V9.28795V9.28776V9.28758V9.28739V9.2872V9.28701V9.28682V9.28663V9.28644V9.28625V9.28607V9.28588V9.28569V9.2855V9.28531V9.28513V9.28494V9.28475V9.28456V9.28438V9.28419V9.284V9.28381V9.28363V9.28344V9.28325V9.28307V9.28288V9.2827V9.28251V9.28232V9.28214V9.28195V9.28177V9.28158V9.28139V9.28121V9.28102V9.28084V9.28065V9.28047V9.28028V9.2801V9.27991V9.27973V9.27955V9.27936V9.27918V9.27899V9.27881V9.27863V9.27844V9.27826V9.27807V9.27789V9.27771V9.27753V9.27734V9.27716V9.27698V9.27679V9.27661V9.27643V9.27625V9.27606V9.27588V9.2757V9.27552V9.27534V9.27515V9.27497V9.27479V9.27461V9.27443V9.27425V9.27407V9.27389V9.27371V9.27352V9.27334V9.27316V9.27298V9.2728V9.27262V9.27244V9.27226V9.27208V9.2719V9.27172V9.27155V9.27137V9.27119V9.27101V9.27083V9.27065V9.27047V9.27029V9.27011V9.26994V9.26976V9.26958V9.2694V9.26922V9.26904V9.26887V9.26869V9.26851V9.26833V9.26816V9.26798V9.2678V9.26763V9.26745V9.26727V9.2671V9.26692V9.26674V9.26657V9.26639V9.26621V9.26604V9.26586V9.26569V9.26551V9.26533V9.26516V9.26498V9.26481V9.26463V9.26446V9.26428V9.26411V9.26393V9.26376V9.26359V9.26341V9.26324V9.26306V9.26289V9.26271V9.26254V9.26237V9.26219V9.26202V9.26185V9.26167V9.2615V9.26133V9.26115V9.26098V9.26081V9.26064V9.26046V9.26029V9.26012V9.25995V9.25977V9.2596V9.25943V9.25926V9.25909V9.25892V9.25874V9.25857V9.2584V9.25823V9.25806V9.25789V9.25772V9.25755V9.25738V9.25721V9.25704V9.25687V9.2567V9.25653V9.25636V9.25619V9.25602V9.25585V9.25568V9.25551V9.25534V9.25517V9.255V9.25483V9.25466V9.2545V9.25433V9.25416V9.25399V9.25382V9.25365V9.25349V9.25332V9.25315V9.25298V9.25281V9.25265V9.25248V9.25231V9.25214V9.25198V9.25181V9.25164V9.25148V9.25131V9.25114V9.25098V9.25081V9.25065V9.25048V9.25031V9.25015V9.24998V9.24982V9.24965V9.24948V9.24932V9.24915V9.24899V9.24882V9.24866V9.24849V9.24833V9.24816V9.248V9.24784V9.24767V9.24751V9.24734V9.24718V9.24702V9.24685V9.24669V9.24652V9.24636V9.2462V9.24603V9.24587V9.24571V9.24555V9.24538V9.24522V9.24506V9.24489V9.24473V9.24457V9.24441V9.24425V9.24408V9.24392V9.24376V9.2436V9.24344V9.24328V9.24311V9.24295V9.24279V9.24263V9.24247V9.24231V9.24215V9.24199V9.24183V9.24167V9.24151V9.24135V9.24119V9.24103V9.24087V9.24071V9.24055V9.24039V9.24023V9.24007V9.23991V9.23975V9.23959V9.23943V9.23927V9.23912V9.23896V9.2388V9.23864V9.23848V9.23832V9.23817V9.23801V9.23785V9.23769V9.23753V9.23738V9.23722V9.23706V9.2369V9.23675V9.23659V9.23643V9.23628V9.23612V9.23596V9.23581V9.23565V9.23549V9.23534V9.23518V9.23503V9.23487V9.23472V9.23456V9.2344V9.23425V9.23409V9.23394V9.23378V9.23363V9.23347V9.23332V9.23316V9.23301V9.23285V9.2327V9.23254V9.23239V9.23224V9.23208V9.23193V9.23177V9.23162V9.23147V9.23131V9.23116V9.23101V9.23085V9.2307V9.23055V9.23039V9.23024V9.23009V9.22994V9.22978V9.22963V9.22948V9.22933V9.22918V9.22902V9.22887V9.22872V9.22857V9.22842V9.22827V9.22811V9.22796V9.22781V9.22766V9.22751V9.22736V9.22721V9.22706V9.22691V9.22676V9.22661V9.22646V9.22631V9.22616V9.22601V9.22586V9.22571V9.22556V9.22541V9.22526V9.22511V9.22496L22.1666 9.191C22.1669 9.05761 22.1672 8.88782 22.1355 8.70992C22.1042 8.53465 22.0596 8.41396 22.0236 8.31655L22.0187 8.30337C21.8927 7.9618 21.6861 7.66163 21.3289 7.30315L15.1666 0.868528L15.1592 0.860722L15.1515 0.853079C14.7493 0.450824 14.3302 0.234599 13.9904 0.12134C13.8222 0.0652894 13.6756 0.0350626 13.5617 0.0188035C13.5047 0.0106617 13.4556 0.00596982 13.4157 0.00330895C13.3957 0.00197738 13.378 0.00115073 13.3627 0.000656664L13.3415 0.000143051L13.3323 3.31402e-05L13.3281 7.92742e-06L13.326 1.96695e-06L13.325 4.76837e-07C13.3245 1.19209e-07 13.324 0 13.324 1L13.324 0H13.324H13.324H13.3239H13.3238H13.3238H13.3237H13.3236H13.3234H13.3233H13.3231H13.323H13.3228H13.3226H13.3224H13.3221H13.3219H13.3216H13.3213H13.3211H13.3208H13.3204H13.3201H13.3198H13.3194H13.319H13.3186H13.3182H13.3178H13.3174H13.3169H13.3165H13.316H13.3155H13.315H13.3145H13.314H13.3134H13.3129H13.3123H13.3117H13.3111H13.3105H13.3099H13.3093H13.3086H13.308H13.3073H13.3066H13.3059H13.3052H13.3044H13.3037H13.3029H13.3022H13.3014H13.3006H13.2998H13.299H13.2981H13.2973H13.2964H13.2956H13.2947H13.2938H13.2929H13.292H13.291H13.2901H13.2891H13.2881H13.2871H13.2862H13.2851H13.2841H13.2831H13.282H13.281H13.2799H13.2788H13.2777H13.2766H13.2755H13.2744H13.2732H13.2721H13.2709H13.2697H13.2685H13.2673H13.2661H13.2649H13.2637H13.2624H13.2612H13.2599H13.2586H13.2573H13.256H13.2547H13.2534H13.252H13.2507H13.2493H13.2479H13.2466H13.2452H13.2438H13.2423H13.2409H13.2395H13.238H13.2366H13.2351H13.2336H13.2321H13.2306H13.2291H13.2276H13.226H13.2245H13.2229H13.2214H13.2198H13.2182H13.2166H13.215H13.2134H13.2118H13.2101H13.2085H13.2068H13.2051H13.2035H13.2018H13.2001H13.1984H13.1966H13.1949H13.1932H13.1914H13.1897H13.1879H13.1861H13.1843H13.1825H13.1807H13.1789H13.1771H13.1753H13.1734H13.1716H13.1697H13.1678H13.166H13.1641H13.1622H13.1603H13.1584H13.1564H13.1545H13.1525H13.1506H13.1486H13.1467H13.1447H13.1427H13.1407H13.1387H13.1367H13.1347H13.1326H13.1306H13.1285H13.1265H13.1244H13.1224H13.1203H13.1182H13.1161H13.114H13.1119H13.1097H13.1076H13.1055H13.1033H13.1012H13.099H13.0969H13.0947H13.0925H13.0903H13.0881H13.0859H13.0837H13.0814H13.0792H13.077H13.0747H13.0725H13.0702H13.0679H13.0657H13.0634H13.0611H13.0588H13.0565H13.0542H13.0519H13.0495H13.0472H13.0449H13.0425H13.0402H13.0378H13.0354H13.0331H13.0307H13.0283H13.0259H13.0235H13.0211H13.0187H13.0163H13.0138H13.0114H13.009H13.0065H13.0041H13.0016H12.9991H12.9967H12.9942H12.9917H12.9892H12.9867H12.9842H12.9817H12.9792H12.9767H12.9741H12.9716H12.9691H12.9665H12.964H12.9614H12.9589H12.9563H12.9537H12.9512H12.9486H12.946H12.9434H12.9408H12.9382H12.9356H12.933H12.9304H12.9277H12.9251H12.9225H12.9198H12.9172H12.9145H12.9119H12.9092H12.9066H12.9039H12.9012H12.8985H12.8958H12.8932H12.8905H12.8878H12.8851H12.8824H12.8796H12.8769H12.8742H12.8715H12.8688H12.866H12.8633H12.8606H12.8578H12.8551H12.8523H12.8495H12.8468H12.844H12.8412H12.8385H12.8357H12.8329H12.8301H12.8273H12.8246H12.8218H12.819H12.8162H12.8133H12.8105H12.8077H12.8049H12.8021H12.7993H12.7964H12.7936H12.7908H12.7879H12.7851H12.7823H12.7794H12.7766H12.7737H12.7709H12.768H12.7651H12.7623H12.7594H12.7565H12.7537H12.7508H12.7479H12.745H12.7422H12.7393H12.7364H12.7335H12.7306H12.7277H12.7248H12.7219H12.719H12.7161H12.7132H12.7103H12.7074H12.7045H12.7016H12.6986H12.6957H12.6928H12.6899H12.687H12.684H12.6811H12.6782H12.6752H12.6723H12.6694H12.6664H12.6635H12.6606H12.6576H12.6547H12.6517H12.6488H12.6459H12.6429H12.64H12.637H12.6341H12.6311H12.6282H12.6252H12.6223H12.6193H12.6163H12.6134H12.6104H12.6075H12.6045H12.6016H12.5986H12.5956H12.5927H12.5897H12.5867H12.5838H12.5808H12.5779H12.5749H12.5719H12.569H12.566H12.563H12.5601H12.5571H12.5541H12.5512H12.5482H12.5452H12.5423H12.5393H12.5363H12.5334H12.5304H12.5274H12.5245H12.5215H12.5186H12.5156H12.5126H12.5097H12.5067H12.5037H12.5008H12.4978H12.4949H12.4919H12.4889H12.486H12.483H12.4801H12.4771H12.4742H12.4712H12.4683H12.4653H12.4624H12.4594H12.4565H12.4535H12.4506H12.4476H12.4447H12.4417H12.4388H12.4359H12.4329H12.43H12.4271H12.4241H12.4212H12.4183H12.4154H12.4124H12.4095H12.4066H12.4037H12.4008H12.3978H12.3949H12.392H12.3891H12.3862H12.3833H12.3804H12.3775H12.3746H12.3717H12.3688H12.3659H12.363H12.3601H12.3573H12.3544H12.3515H12.3486H12.3457H12.3429H12.34H12.3371H12.3343H12.3314H12.3286H12.3257H12.3229H12.32H12.3172H12.3143H12.3115H12.3087H12.3058H12.303H12.3002H12.2974H12.2945H12.2917H12.2889H12.2861H12.2833H12.2805H12.2777H12.2749H12.2721H12.2693H12.2665H12.2638H12.261H12.2582H12.2555H12.2527H12.2499H12.2472H12.2444H12.2417H12.2389H12.2362H12.2335H12.2307H12.228H12.2253H12.2226H12.2199H12.2171H12.2144H12.2117H12.209H12.2064H12.2037Z" fill="#9DA0A3"/>
</svg>
