<svg width="36" height="35" viewBox="0 0 36 35" fill="none" xmlns="http://www.w3.org/2000/svg">
<rect x="0.5" width="35" height="35" rx="17.5" fill="#FBDDFF"/>
<path fill-rule="evenodd" clip-rule="evenodd" d="M9.43084 30.4179C10.5759 27.8756 13.0307 25.1506 18.2933 25.1506C23.3455 25.1506 25.8099 27.6621 27.012 30.1123C30.9401 27.3005 33.5 22.6992 33.5 17.5C33.5 8.93959 26.5604 2 18 2C9.43959 2 2.5 8.93959 2.5 17.5C2.5 22.8921 5.25336 27.6412 9.43084 30.4179ZM27.0744 32.4665C32.1257 29.3972 35.5 23.8426 35.5 17.5C35.5 7.83502 27.665 0 18 0C8.33502 0 0.5 7.83502 0.5 17.5C0.5 23.7746 3.80219 29.2778 8.76351 32.3668C10.4891 33.4411 12.4153 34.2234 14.4731 34.6445C14.6095 34.6724 14.7465 34.6987 14.884 34.7234C15.8952 34.9051 16.9365 35 18 35C19.0635 35 20.1048 34.9051 21.116 34.7234C23.2638 34.3374 25.2754 33.5595 27.0744 32.4665ZM18.3908 22.3165C22.7488 22.3165 26.2817 18.8878 26.2817 14.6583C26.2817 10.4287 22.7488 7 18.3908 7C14.0328 7 10.5 10.4287 10.5 14.6583C10.5 18.8878 14.0328 22.3165 18.3908 22.3165Z" fill="#C130CA"/>
</svg>
