<svg width="20" height="19" viewBox="0 0 20 19" fill="none" xmlns="http://www.w3.org/2000/svg">
<path d="M12.0161 3.20923C12.6488 2.80854 12.9651 2.6082 13.3072 2.64169C13.6493 2.67519 13.9208 2.93308 14.4637 3.44887L16.25 5.14581C16.8462 5.71225 17.1444 5.99547 17.1813 6.36517C17.2182 6.73487 16.982 7.07147 16.5096 7.74466L15.3931 9.33565C15.11 9.73907 14.9685 9.94078 14.8406 10.1489C14.4459 10.7915 14.144 11.4866 13.9439 12.2137C13.8791 12.4492 13.8283 12.6903 13.7268 13.1726L13.5838 13.8519C13.4635 14.4234 12.8055 14.6945 12.3175 14.3735L12.1776 14.2815C9.36 12.4284 6.89924 10.083 4.91311 7.35762V7.35762C4.56626 6.88167 4.83323 6.20669 5.4118 6.09676L6.28638 5.93059C6.83272 5.82678 7.10589 5.77488 7.37278 5.70482C7.9897 5.54287 8.58504 5.30773 9.14612 5.0044C9.38884 4.87318 9.62375 4.7244 10.0936 4.42685L12.0161 3.20923Z" stroke="#9DA0A3" stroke-width="2"/>
<path d="M4.16666 15.0417L7.91666 11.4792" stroke="#9DA0A3" stroke-width="2" stroke-linecap="round"/>
</svg>
