<svg width="20" height="20" viewBox="0 0 20 20" fill="none" xmlns="http://www.w3.org/2000/svg">
<circle cx="9" cy="6" r="3" stroke="#B95DD9" stroke-width="2" stroke-linecap="round"/>
<path d="M12.2679 6C12.5332 5.54063 12.97 5.20543 13.4824 5.06815C13.9947 4.93086 14.5406 5.00273 15 5.26795C15.4594 5.53317 15.7946 5.97 15.9319 6.48236C16.0691 6.99472 15.9973 7.54063 15.7321 8C15.4668 8.45937 15.03 8.79457 14.5176 8.93185C14.0053 9.06914 13.4594 8.99727 13 8.73205C12.5406 8.46683 12.2054 8.03 12.0681 7.51764C11.9309 7.00528 12.0027 6.45937 12.2679 6L12.2679 6Z" stroke="#B95DD9" stroke-width="2"/>
<path d="M13.8816 16L12.9013 16.1974L13.0629 17H13.8816V16ZM17.7202 14.9042L18.6627 14.5699L17.7202 14.9042ZM11.7808 12.7105L11.176 11.9142L10.0194 12.7927L11.2527 13.5597L11.7808 12.7105ZM16.8672 15H13.8816V17H16.8672V15ZM16.7777 15.2384C16.7707 15.2186 16.7642 15.181 16.7725 15.1354C16.7804 15.0921 16.7982 15.0593 16.8151 15.0383C16.8474 14.9982 16.874 15 16.8672 15V17C18.0132 17 19.1414 15.9194 18.6627 14.5699L16.7777 15.2384ZM14 13C15.6416 13 16.4027 14.1811 16.7777 15.2384L18.6627 14.5699C18.1976 13.2588 16.9485 11 14 11V13ZM12.3857 13.5069C12.7702 13.2148 13.282 13 14 13V11C12.8381 11 11.9028 11.3622 11.176 11.9142L12.3857 13.5069ZM11.2527 13.5597C12.2918 14.206 12.7271 15.3324 12.9013 16.1974L14.8619 15.8026C14.644 14.7204 14.0374 12.9364 12.309 11.8614L11.2527 13.5597Z" fill="#B95DD9"/>
<path d="M9 12C12.5715 12 13.5919 14.5512 13.8834 16.0089C13.9917 16.5504 13.5523 17 13 17H5C4.44772 17 4.00829 16.5504 4.11659 16.0089C4.4081 14.5512 5.42846 12 9 12Z" stroke="#B95DD9" stroke-width="2" stroke-linecap="round"/>
</svg>
