<svg width="20" height="20" viewBox="0 0 20 20" fill="none" xmlns="http://www.w3.org/2000/svg">
<path fill-rule="evenodd" clip-rule="evenodd" d="M9 2L8.92943 2H8.9294C7.57529 1.99997 6.45869 1.99994 5.57494 2.11876C4.64711 2.2435 3.82769 2.51547 3.17158 3.17158C2.51547 3.82769 2.2435 4.64711 2.11876 5.57494C1.99994 6.45869 1.99997 7.57529 2 8.92939V8.92943L2 9V11L2 11.0706V11.0706C1.99997 12.4247 1.99994 13.5413 2.11876 14.4251C2.2435 15.3529 2.51547 16.1723 3.17158 16.8284C3.82769 17.4845 4.64711 17.7565 5.57494 17.8813C6.4587 18.0001 7.57531 18 8.92943 18L9 18H11L11.0706 18C12.4247 18 13.5413 18.0001 14.4251 17.8813C15.3529 17.7565 16.1723 17.4845 16.8284 16.8284C17.4845 16.1723 17.7565 15.3529 17.8813 14.4251C18.0001 13.5413 18 12.4247 18 11.0706L18 11V9L18 8.92943C18 7.57531 18.0001 6.4587 17.8813 5.57494C17.7565 4.64711 17.4845 3.82769 16.8284 3.17158C16.1723 2.51547 15.3529 2.2435 14.4251 2.11876C13.5413 1.99994 12.4247 1.99997 11.0706 2H11.0706L11 2H9ZM4.58579 4.58579C4.80836 4.36322 5.13538 4.19585 5.84144 4.10092C6.57626 4.00213 7.55752 4 9 4H11C12.4425 4 13.4238 4.00213 14.1586 4.10092C14.8646 4.19585 15.1916 4.36322 15.4142 4.58579C15.6368 4.80836 15.8042 5.13538 15.8991 5.84144C15.9435 6.17144 15.9683 6.55114 15.9823 7H4.01775C4.03168 6.55114 4.05655 6.17144 4.10092 5.84144C4.19585 5.13538 4.36322 4.80836 4.58579 4.58579ZM4 9V11C4 12.4425 4.00213 13.4238 4.10092 14.1586C4.19585 14.8646 4.36322 15.1916 4.58579 15.4142C4.80836 15.6368 5.13538 15.8042 5.84144 15.8991C6.57626 15.9979 7.55752 16 9 16H11C12.4425 16 13.4238 15.9979 14.1586 15.8991C14.8646 15.8042 15.1916 15.6368 15.4142 15.4142C15.6368 15.1916 15.8042 14.8646 15.8991 14.1586C15.9979 13.4238 16 12.4425 16 11V9L4 9Z" fill="#9DA0A3"/>
</svg>
