<svg width="35" height="35" viewBox="0 0 35 35" fill="none" xmlns="http://www.w3.org/2000/svg">
<path fill-rule="evenodd" clip-rule="evenodd" d="M8.93084 30.4179C10.0759 27.8756 12.5307 25.1506 17.7933 25.1506C22.8455 25.1506 25.3099 27.6621 26.512 30.1123C30.4401 27.3005 33 22.6992 33 17.5C33 8.93959 26.0604 2 17.5 2C8.93959 2 2 8.93959 2 17.5C2 22.8921 4.75336 27.6412 8.93084 30.4179ZM26.5744 32.4665C31.6257 29.3972 35 23.8426 35 17.5C35 7.83502 27.165 0 17.5 0C7.83502 0 0 7.83502 0 17.5C0 23.7746 3.30219 29.2778 8.26351 32.3668C9.98906 33.4411 11.9153 34.2234 13.9731 34.6445C14.1095 34.6724 14.2465 34.6987 14.384 34.7234C15.3952 34.9051 16.4365 35 17.5 35C18.5635 35 19.6048 34.9051 20.616 34.7234C22.7638 34.3374 24.7754 33.5595 26.5744 32.4665ZM17.8908 22.3165C22.2488 22.3165 25.7817 18.8878 25.7817 14.6583C25.7817 10.4287 22.2488 7 17.8908 7C13.5328 7 10 10.4287 10 14.6583C10 18.8878 13.5328 22.3165 17.8908 22.3165Z" fill="#9747FF"/>
</svg>
